<svg width="29" height="28" viewBox="0 0 29 28" fill="none" xmlns="http://www.w3.org/2000/svg">
<path d="M0.763184 14C0.763184 21.732 7.0312 28 14.7632 28C22.4952 28 28.7632 21.732 28.7632 14C28.7632 6.26801 22.4952 0 14.7632 0C7.0312 0 0.763184 6.26801 0.763184 14Z" fill="#1877F2"/>
<path d="M21.7632 14C21.7632 10.15 18.6132 7 14.7632 7C10.9132 7 7.76318 10.15 7.76318 14C7.76318 17.5 10.3007 20.3875 13.6257 20.9125V16.0125H11.8757V14H13.6257V12.425C13.6257 10.675 14.6757 9.7125 16.2507 9.7125C17.0382 9.7125 17.8257 9.8875 17.8257 9.8875V11.6375H16.9507C16.0757 11.6375 15.8132 12.1625 15.8132 12.6875V14H17.7382L17.3882 16.0125H15.7257V21C19.2257 20.475 21.7632 17.5 21.7632 14Z" fill="white"/>
</svg>
