<svg width="29" height="28" viewBox="0 0 29 28" fill="none" xmlns="http://www.w3.org/2000/svg">
<path d="M0.763184 14C0.763184 21.732 7.0312 28 14.7632 28C22.4952 28 28.7632 21.732 28.7632 14C28.7632 6.26801 22.4952 0 14.7632 0C7.0312 0 0.763184 6.26801 0.763184 14Z" fill="#2867B2"/>
<path d="M10.9132 21H7.93818V11.6375H10.9132V21ZM9.42568 10.325C8.46318 10.325 7.76318 9.625 7.76318 8.6625C7.76318 7.7 8.55068 7 9.42568 7C10.3882 7 11.0882 7.7 11.0882 8.6625C11.0882 9.625 10.3882 10.325 9.42568 10.325ZM21.7632 21H18.7882V15.925C18.7882 14.4375 18.1757 14 17.3007 14C16.4257 14 15.5507 14.7 15.5507 16.0125V21H12.5757V11.6375H15.3757V12.95C15.6382 12.3375 16.6882 11.375 18.1757 11.375C19.8382 11.375 21.5882 12.3375 21.5882 15.225V21H21.7632Z" fill="white"/>
</svg>
