<svg width="29" height="28" viewBox="0 0 29 28" fill="none" xmlns="http://www.w3.org/2000/svg">
<path d="M0.763184 14C0.763184 21.732 7.0312 28 14.7632 28C22.4952 28 28.7632 21.732 28.7632 14C28.7632 6.26801 22.4952 0 14.7632 0C7.0312 0 0.763184 6.26801 0.763184 14Z" fill="#1DA1F2"/>
<path d="M21.7632 9.625C21.2382 9.8875 20.7132 9.975 20.1007 10.0625C20.7132 9.7125 21.1507 9.1875 21.3257 8.4875C20.8007 8.8375 20.1882 9.0125 19.4882 9.1875C18.9632 8.6625 18.1757 8.3125 17.3882 8.3125C15.5507 8.3125 14.1507 10.0625 14.5882 11.8125C12.2257 11.725 10.1257 10.5875 8.63818 8.8375C7.85068 10.15 8.28818 11.8125 9.51318 12.6875C9.07568 12.6875 8.63818 12.5125 8.20068 12.3375C8.20068 13.65 9.16318 14.875 10.4757 15.225C10.0382 15.3125 9.60068 15.4 9.16318 15.3125C9.51318 16.45 10.5632 17.325 11.8757 17.325C10.8257 18.1125 9.25068 18.55 7.76318 18.375C9.07568 19.1625 10.5632 19.6875 12.1382 19.6875C17.4757 19.6875 20.4507 15.225 20.2757 11.1125C20.8882 10.7625 21.4132 10.2375 21.7632 9.625Z" fill="white"/>
</svg>
