<?xml version="1.0" encoding="UTF-8"?>
<!DOCTYPE svg PUBLIC "-//W3C//DTD SVG 1.1//EN" "http://www.w3.org/Graphics/SVG/1.1/DTD/svg11.dtd">
<svg xmlns="http://www.w3.org/2000/svg" version="1.1" width="133px" height="134px" style="shape-rendering:geometricPrecision; text-rendering:geometricPrecision; image-rendering:optimizeQuality; fill-rule:evenodd; clip-rule:evenodd" xmlns:xlink="http://www.w3.org/1999/xlink">
<g><path style="opacity:0.993" fill="#dce4db" d="M 60.5,-0.5 C 64.1667,-0.5 67.8333,-0.5 71.5,-0.5C 75.716,0.637951 79.716,2.47128 83.5,5C 96.3333,17.8333 109.167,30.6667 122,43.5C 131.652,55.9385 132.985,69.2718 126,83.5C 119.631,90.036 113.131,96.3694 106.5,102.5C 109.228,96.5836 112.228,90.7502 115.5,85C 114.601,83.7638 113.434,82.9304 112,82.5C 110.211,83.4091 108.377,83.5758 106.5,83C 98.1602,73.8187 92.8269,62.9854 90.5,50.5C 90.5,49.5 90.5,48.5 90.5,47.5C 92.5,47.1667 94.5,46.8333 96.5,46.5C 97.2684,44.089 97.6018,41.7556 97.5,39.5C 97.7657,35.3151 97.9324,30.9818 98,26.5C 96.6884,23.7615 94.5217,22.4282 91.5,22.5C 90.4154,20.4131 88.7488,19.0798 86.5,18.5C 84.7299,17.236 83.0632,15.736 81.5,14C 77.7778,13.7618 74.1111,13.2618 70.5,12.5C 66.667,13.0292 63.167,14.3625 60,16.5C 54.7788,14.8393 49.9454,15.506 45.5,18.5C 39.8797,23.8637 33.8797,28.5304 27.5,32.5C 23.6437,33.8506 20.4771,36.184 18,39.5C 15.8937,45.8241 13.8937,52.1575 12,58.5C 11.1826,64.0164 11.3493,69.3497 12.5,74.5C 11.9735,78.3504 11.3069,82.1838 10.5,86C 11.1272,89.0342 12.1272,91.8675 13.5,94.5C 7.5471,87.5901 2.88043,79.9234 -0.5,71.5C -0.5,68.5 -0.5,65.5 -0.5,62.5C 0.938849,55.9506 3.77218,49.9506 8,44.5C 21.5,31 35,17.5 48.5,4C 52.5711,2.36954 56.5711,0.869545 60.5,-0.5 Z"/></g>
<g><path style="opacity:1" fill="#7fac6b" d="M 86.5,18.5 C 83.9078,18.4543 81.7411,17.4543 80,15.5C 76.5991,15.6329 73.2657,15.6329 70,15.5C 67.1161,16.117 64.2828,16.7837 61.5,17.5C 59.8561,17.7135 58.3561,17.3802 57,16.5C 56.5172,17.448 56.3505,18.448 56.5,19.5C 52.7561,18.9733 49.5894,19.9733 47,22.5C 45.8118,21.4366 45.3118,20.1033 45.5,18.5C 49.9454,15.506 54.7788,14.8393 60,16.5C 63.167,14.3625 66.667,13.0292 70.5,12.5C 74.1111,13.2618 77.7778,13.7618 81.5,14C 83.0632,15.736 84.7299,17.236 86.5,18.5 Z"/></g>
<g><path style="opacity:1" fill="#77a75b" d="M 86.5,18.5 C 88.7488,19.0798 90.4154,20.4131 91.5,22.5C 89.8828,21.962 88.2161,21.6287 86.5,21.5C 86.3508,25.1233 85.1842,25.4566 83,22.5C 81.3164,22.6834 81.1498,23.3501 82.5,24.5C 78.528,23.4669 74.6946,22.8003 71,22.5C 70.6121,23.428 69.9454,24.0946 69,24.5C 66.2464,24.7022 63.413,24.3688 60.5,23.5C 60.7373,24.791 60.404,25.791 59.5,26.5C 58.8333,23.8333 58.1667,21.1667 57.5,18.5C 59.099,18.7678 60.4324,18.4345 61.5,17.5C 64.2828,16.7837 67.1161,16.117 70,15.5C 73.2657,15.6329 76.5991,15.6329 80,15.5C 81.7411,17.4543 83.9078,18.4543 86.5,18.5 Z"/></g>
<g><path style="opacity:1" fill="#67905c" d="M 61.5,17.5 C 60.4324,18.4345 59.099,18.7678 57.5,18.5C 58.1667,21.1667 58.8333,23.8333 59.5,26.5C 59.1667,26.5 58.8333,26.5 58.5,26.5C 55.1445,26.0914 52.1445,26.7581 49.5,28.5C 45.1723,27.1069 41.5056,28.2735 38.5,32C 39.1667,32.1667 39.8333,32.3333 40.5,32.5C 42.8006,31.6042 45.1339,31.4375 47.5,32C 44.2255,34.92 41.2255,38.0867 38.5,41.5C 37.448,41.6495 36.448,41.4828 35.5,41C 36.8882,40.1107 36.7215,39.6107 35,39.5C 32.614,41.2829 30.4474,43.2829 28.5,45.5C 27.3527,45.1822 26.5194,44.5156 26,43.5C 25.8047,45.2072 25.8047,46.8739 26,48.5C 24.6861,49.3128 23.5195,50.3128 22.5,51.5C 21.5,48.8333 20.5,48.8333 19.5,51.5C 21.1823,53.3358 22.849,54.3358 24.5,54.5C 23.4019,55.397 23.4019,56.2303 24.5,57C 23.9558,57.7172 23.2891,58.2172 22.5,58.5C 21.4019,57.603 21.4019,56.7697 22.5,56C 20.8333,55.3333 19.1667,55.3333 17.5,56C 18.448,56.4828 19.448,56.6495 20.5,56.5C 20.7672,59.775 19.7672,60.6084 17.5,59C 19.9316,57.9125 19.5983,57.4125 16.5,57.5C 15.612,54.9455 15.2786,52.2788 15.5,49.5C 16.5,49.5 17.5,49.5 18.5,49.5C 18.3919,44.9787 20.3919,41.812 24.5,40C 22.0712,39.5488 21.9045,38.7155 24,37.5C 24.9653,39.2603 26.132,39.5937 27.5,38.5C 25.2616,36.647 25.2616,34.647 27.5,32.5C 33.8797,28.5304 39.8797,23.8637 45.5,18.5C 45.3118,20.1033 45.8118,21.4366 47,22.5C 49.5894,19.9733 52.7561,18.9733 56.5,19.5C 56.3505,18.448 56.5172,17.448 57,16.5C 58.3561,17.3802 59.8561,17.7135 61.5,17.5 Z"/></g>
<g><path style="opacity:1" fill="#709d4f" d="M 58.5,26.5 C 58.4456,28.632 57.4456,29.9653 55.5,30.5C 54.8826,30.6107 54.3826,30.944 54,31.5C 51.9737,31.0853 50.4737,30.0853 49.5,28.5C 52.1445,26.7581 55.1445,26.0914 58.5,26.5 Z"/></g>
<g><path style="opacity:1" fill="#97c14e" d="M 91.5,22.5 C 94.5217,22.4282 96.6884,23.7615 98,26.5C 97.9324,30.9818 97.7657,35.3151 97.5,39.5C 96.0695,39.5792 94.7362,39.2458 93.5,38.5C 92.8076,39.0253 92.3076,39.6919 92,40.5C 90.3409,39.1832 89.1743,37.5165 88.5,35.5C 89.9814,34.5197 91.3147,33.353 92.5,32C 91.1667,31.6667 89.8333,31.3333 88.5,31C 89.1667,30.6667 89.8333,30.3333 90.5,30C 88.5483,29.6339 86.8816,28.8005 85.5,27.5C 83.5,27.5 82.5,26.5 82.5,24.5C 81.1498,23.3501 81.3164,22.6834 83,22.5C 85.1842,25.4566 86.3508,25.1233 86.5,21.5C 88.2161,21.6287 89.8828,21.962 91.5,22.5 Z"/></g>
<g><path style="opacity:1" fill="#649254" d="M 82.5,24.5 C 82.5,26.5 83.5,27.5 85.5,27.5C 85.38,28.5862 84.7133,29.2528 83.5,29.5C 79.5763,29.3843 75.5763,28.8843 71.5,28C 69.6584,29.3435 67.9917,30.8435 66.5,32.5C 67.2624,32.9106 68.2624,33.0773 69.5,33C 68.4019,33.7697 68.4019,34.603 69.5,35.5C 67.9382,35.7329 66.6049,36.3995 65.5,37.5C 64.719,35.6777 63.5523,35.0111 62,35.5C 61.6466,36.6716 61.8132,37.8382 62.5,39C 62.1786,41.5438 60.8453,42.5438 58.5,42C 59.1667,41.6667 59.8333,41.3333 60.5,41C 57.8807,40.8485 55.5473,40.0152 53.5,38.5C 54.6302,37.3777 55.2969,36.0443 55.5,34.5C 59.4823,33.1965 59.4823,31.8632 55.5,30.5C 57.4456,29.9653 58.4456,28.632 58.5,26.5C 58.8333,26.5 59.1667,26.5 59.5,26.5C 60.404,25.791 60.7373,24.791 60.5,23.5C 63.413,24.3688 66.2464,24.7022 69,24.5C 69.9454,24.0946 70.6121,23.428 71,22.5C 74.6946,22.8003 78.528,23.4669 82.5,24.5 Z"/></g>
<g><path style="opacity:1" fill="#749967" d="M 27.5,32.5 C 25.2616,34.647 25.2616,36.647 27.5,38.5C 26.132,39.5937 24.9653,39.2603 24,37.5C 21.9045,38.7155 22.0712,39.5488 24.5,40C 20.3919,41.812 18.3919,44.9787 18.5,49.5C 17.5,49.5 16.5,49.5 15.5,49.5C 15.2786,52.2788 15.612,54.9455 16.5,57.5C 15.6364,57.7024 14.6364,58.0357 13.5,58.5C 15.4852,62.7356 16.1519,67.069 15.5,71.5C 14.6922,69.5767 14.1922,67.5767 14,65.5C 12.8512,68.3926 12.3512,71.3926 12.5,74.5C 11.3493,69.3497 11.1826,64.0164 12,58.5C 13.8937,52.1575 15.8937,45.8241 18,39.5C 20.4771,36.184 23.6437,33.8506 27.5,32.5 Z"/></g>
<g><path style="opacity:1" fill="#72a23f" d="M 85.5,27.5 C 86.8816,28.8005 88.5483,29.6339 90.5,30C 89.8333,30.3333 89.1667,30.6667 88.5,31C 89.8333,31.3333 91.1667,31.6667 92.5,32C 91.3147,33.353 89.9814,34.5197 88.5,35.5C 89.1743,37.5165 90.3409,39.1832 92,40.5C 92.3076,39.6919 92.8076,39.0253 93.5,38.5C 94.7362,39.2458 96.0695,39.5792 97.5,39.5C 97.6018,41.7556 97.2684,44.089 96.5,46.5C 94.5,46.8333 92.5,47.1667 90.5,47.5C 90.5,48.5 90.5,49.5 90.5,50.5C 89.8333,50.5 89.1667,50.5 88.5,50.5C 86.1794,49.1683 84.5127,47.1683 83.5,44.5C 82.0815,45.0047 81.4148,46.0047 81.5,47.5C 79.3043,47.5652 77.3043,48.2319 75.5,49.5C 76.1667,49.8333 76.8333,50.1667 77.5,50.5C 76.3063,51.7992 75.3063,53.1325 74.5,54.5C 73.8333,55.1667 73.1667,55.8333 72.5,56.5C 71.6241,54.0198 70.2908,51.8531 68.5,50C 70.9739,49.8871 72.9739,48.8871 74.5,47C 72.8659,46.5065 71.1992,46.3398 69.5,46.5C 69.4606,45.4168 69.1272,44.4168 68.5,43.5C 70.4401,42.4716 72.4401,42.4716 74.5,43.5C 76.4734,42.3601 78.3067,41.0267 80,39.5C 80.9653,41.2603 82.132,41.5937 83.5,40.5C 82.2528,38.677 81.5861,36.677 81.5,34.5C 84.9704,34.2895 84.9704,33.1229 81.5,31C 79.6815,30.2172 78.3482,30.7172 77.5,32.5C 77.8457,33.6956 78.3457,33.6956 79,32.5C 80.7837,38.1933 78.9503,40.5266 73.5,39.5C 73.7093,38.914 74.0426,38.414 74.5,38C 72.5483,37.6339 70.8816,36.8005 69.5,35.5C 68.4019,34.603 68.4019,33.7697 69.5,33C 68.2624,33.0773 67.2624,32.9106 66.5,32.5C 67.9917,30.8435 69.6584,29.3435 71.5,28C 75.5763,28.8843 79.5763,29.3843 83.5,29.5C 84.7133,29.2528 85.38,28.5862 85.5,27.5 Z"/></g>
<g><path style="opacity:1" fill="#5a8350" d="M 49.5,28.5 C 50.4737,30.0853 51.9737,31.0853 54,31.5C 54.3826,30.944 54.8826,30.6107 55.5,30.5C 59.4823,31.8632 59.4823,33.1965 55.5,34.5C 53.6023,35.0893 51.6023,35.256 49.5,35C 50.9733,35.7096 51.6399,36.8762 51.5,38.5C 49.8967,38.3118 48.5634,38.8118 47.5,40C 48.91,40.3678 49.91,41.2011 50.5,42.5C 49.1847,44.769 48.0181,47.1023 47,49.5C 46.3828,48.5509 46.5494,47.7175 47.5,47C 46.1667,46.6667 44.8333,46.3333 43.5,46C 44.8882,45.1107 44.7215,44.6107 43,44.5C 42.228,44.6448 41.5613,44.9781 41,45.5C 39.9152,44.2644 39.0819,42.9311 38.5,41.5C 41.2255,38.0867 44.2255,34.92 47.5,32C 45.1339,31.4375 42.8006,31.6042 40.5,32.5C 39.8333,32.3333 39.1667,32.1667 38.5,32C 41.5056,28.2735 45.1723,27.1069 49.5,28.5 Z"/></g>
<g><path style="opacity:1" fill="#5c8c38" d="M 69.5,46.5 C 68.8826,46.6107 68.3826,46.944 68,47.5C 67.5065,45.8659 67.3398,44.1992 67.5,42.5C 66.1667,42.5 64.8333,42.5 63.5,42.5C 63.4021,40.4471 64.0687,38.7804 65.5,37.5C 66.6049,36.3995 67.9382,35.7329 69.5,35.5C 70.8816,36.8005 72.5483,37.6339 74.5,38C 74.0426,38.414 73.7093,38.914 73.5,39.5C 78.9503,40.5266 80.7837,38.1933 79,32.5C 78.3457,33.6956 77.8457,33.6956 77.5,32.5C 78.3482,30.7172 79.6815,30.2172 81.5,31C 84.9704,33.1229 84.9704,34.2895 81.5,34.5C 81.5861,36.677 82.2528,38.677 83.5,40.5C 82.132,41.5937 80.9653,41.2603 80,39.5C 78.3067,41.0267 76.4734,42.3601 74.5,43.5C 72.4401,42.4716 70.4401,42.4716 68.5,43.5C 69.1272,44.4168 69.4606,45.4168 69.5,46.5 Z"/></g>
<g><path style="opacity:1" fill="#4c753d" d="M 55.5,34.5 C 55.2969,36.0443 54.6302,37.3777 53.5,38.5C 55.5473,40.0152 57.8807,40.8485 60.5,41C 59.8333,41.3333 59.1667,41.6667 58.5,42C 60.8453,42.5438 62.1786,41.5438 62.5,39C 61.8132,37.8382 61.6466,36.6716 62,35.5C 63.5523,35.0111 64.719,35.6777 65.5,37.5C 64.0687,38.7804 63.4021,40.4471 63.5,42.5C 64.8333,42.5 66.1667,42.5 67.5,42.5C 67.3398,44.1992 67.5065,45.8659 68,47.5C 68.3826,46.944 68.8826,46.6107 69.5,46.5C 71.1992,46.3398 72.8659,46.5065 74.5,47C 72.9739,48.8871 70.9739,49.8871 68.5,50C 70.2908,51.8531 71.6241,54.0198 72.5,56.5C 72.631,57.2389 72.4643,57.9056 72,58.5C 71.5831,57.244 70.7498,56.5774 69.5,56.5C 69.6716,55.5084 69.3382,54.8417 68.5,54.5C 68.1898,52.8564 67.1898,51.8564 65.5,51.5C 68.0708,50.2379 68.0708,48.9045 65.5,47.5C 66.626,43.7805 65.7927,43.1139 63,45.5C 62.2825,44.5494 61.4491,44.3828 60.5,45C 64.9659,47.3121 65.2992,49.8121 61.5,52.5C 60.3473,51.6868 60.3473,50.6868 61.5,49.5C 58.867,48.0015 57.5336,48.8348 57.5,52C 57.5275,54.3633 58.6941,55.8633 61,56.5C 61.3076,55.6919 61.8076,55.0253 62.5,54.5C 63.2304,56.3413 63.8971,58.1746 64.5,60C 63,62.1667 61.8333,62 61,59.5C 60.6824,61.0609 59.8491,62.2276 58.5,63C 59.8333,64.6667 61.1667,66.3333 62.5,68C 59.508,68.5193 58.508,70.0193 59.5,72.5C 59,72.8333 58.5,73.1667 58,73.5C 55.5486,71.4052 52.7153,70.4052 49.5,70.5C 51.631,69.6862 53.9644,69.1862 56.5,69C 57.1667,67.6667 58.1667,66.6667 59.5,66C 59,65.5 58.5,65 58,64.5C 57.5193,60.4686 56.8527,56.4686 56,52.5C 54.5585,54.3049 54.3918,56.3049 55.5,58.5C 53.6096,58.2965 52.1096,58.9632 51,60.5C 50.2917,59.6195 49.4584,58.9528 48.5,58.5C 48.6309,57.6236 48.2975,56.9569 47.5,56.5C 45.9825,57.9108 44.6492,57.7441 43.5,56C 44.5,55.6667 45.5,55.3333 46.5,55C 40.3209,54.8474 39.9875,56.1808 45.5,59C 45.1667,59.3333 44.8333,59.6667 44.5,60C 45.9561,60.4226 46.4561,61.2559 46,62.5C 45,61.1667 44,61.1667 43,62.5C 42.9428,60.0898 41.7761,58.7565 39.5,58.5C 39.8039,57.8501 40.1373,57.1835 40.5,56.5C 38.8333,55.3333 37.1667,54.1667 35.5,53C 36.5,52.6667 37.5,52.3333 38.5,52C 38.0563,50.4667 37.723,48.9667 37.5,47.5C 35.823,49.5398 34.1563,51.5398 32.5,53.5C 31.145,51.4765 30.8117,49.4765 31.5,47.5C 30.1667,46.1667 28.8333,46.1667 27.5,47.5C 28.6682,48.9056 28.3348,50.0723 26.5,51C 27.938,51.2189 29.2713,51.7189 30.5,52.5C 29.5022,55.0278 28.6689,55.0278 28,52.5C 27.0053,53.0659 26.172,53.7326 25.5,54.5C 25.1667,54.5 24.8333,54.5 24.5,54.5C 22.849,54.3358 21.1823,53.3358 19.5,51.5C 20.5,48.8333 21.5,48.8333 22.5,51.5C 23.5195,50.3128 24.6861,49.3128 26,48.5C 25.8047,46.8739 25.8047,45.2072 26,43.5C 26.5194,44.5156 27.3527,45.1822 28.5,45.5C 30.4474,43.2829 32.614,41.2829 35,39.5C 36.7215,39.6107 36.8882,40.1107 35.5,41C 36.448,41.4828 37.448,41.6495 38.5,41.5C 39.0819,42.9311 39.9152,44.2644 41,45.5C 41.5613,44.9781 42.228,44.6448 43,44.5C 44.7215,44.6107 44.8882,45.1107 43.5,46C 44.8333,46.3333 46.1667,46.6667 47.5,47C 46.5494,47.7175 46.3828,48.5509 47,49.5C 48.0181,47.1023 49.1847,44.769 50.5,42.5C 49.91,41.2011 48.91,40.3678 47.5,40C 48.5634,38.8118 49.8967,38.3118 51.5,38.5C 51.6399,36.8762 50.9733,35.7096 49.5,35C 51.6023,35.256 53.6023,35.0893 55.5,34.5 Z"/></g>
<g><path style="opacity:1" fill="#2e5423" d="M 65.5,51.5 C 64.2921,52.2341 62.9587,52.5674 61.5,52.5C 65.2992,49.8121 64.9659,47.3121 60.5,45C 61.4491,44.3828 62.2825,44.5494 63,45.5C 65.7927,43.1139 66.626,43.7805 65.5,47.5C 68.0708,48.9045 68.0708,50.2379 65.5,51.5 Z"/></g>
<g><path style="opacity:1" fill="#3e692b" d="M 81.5,47.5 C 81.7406,49.8984 81.0739,51.8984 79.5,53.5C 78.5,53.5 77.5,53.5 76.5,53.5C 77.2309,55.5988 77.2309,57.5988 76.5,59.5C 75.0499,58.1502 74.3832,56.4835 74.5,54.5C 75.3063,53.1325 76.3063,51.7992 77.5,50.5C 76.8333,50.1667 76.1667,49.8333 75.5,49.5C 77.3043,48.2319 79.3043,47.5652 81.5,47.5 Z"/></g>
<g><path style="opacity:1" fill="#577e50" d="M 39.5,58.5 C 38.1667,58.5 37.5,59.1667 37.5,60.5C 36.7611,60.369 36.0944,60.5357 35.5,61C 36.6956,61.6543 36.6956,62.1543 35.5,62.5C 33.5183,61.0302 31.8517,61.3636 30.5,63.5C 29.6919,63.1924 29.0253,62.6924 28.5,62C 30.2205,61.2607 31.8872,60.4274 33.5,59.5C 33.3333,59.1667 33.1667,58.8333 33,58.5C 30.3789,60.0085 27.8789,60.6752 25.5,60.5C 25.0461,58.7411 25.0461,56.7411 25.5,54.5C 26.172,53.7326 27.0053,53.0659 28,52.5C 28.6689,55.0278 29.5022,55.0278 30.5,52.5C 29.2713,51.7189 27.938,51.2189 26.5,51C 28.3348,50.0723 28.6682,48.9056 27.5,47.5C 28.8333,46.1667 30.1667,46.1667 31.5,47.5C 30.8117,49.4765 31.145,51.4765 32.5,53.5C 34.1563,51.5398 35.823,49.5398 37.5,47.5C 37.723,48.9667 38.0563,50.4667 38.5,52C 37.5,52.3333 36.5,52.6667 35.5,53C 37.1667,54.1667 38.8333,55.3333 40.5,56.5C 40.1373,57.1835 39.8039,57.8501 39.5,58.5 Z"/></g>
<g><path style="opacity:1" fill="#9dc05b" d="M 88.5,50.5 C 88.5,52.8333 88.5,55.1667 88.5,57.5C 84.0157,56.0985 83.5157,57.0985 87,60.5C 87.9533,63.4318 88.4533,66.4318 88.5,69.5C 85.6122,68.9898 83.2789,69.6565 81.5,71.5C 80.8333,71.5 80.1667,71.5 79.5,71.5C 79.1667,70.1667 78.8333,68.8333 78.5,67.5C 82.4477,68.8859 83.781,67.5526 82.5,63.5C 81.8076,64.0253 81.3076,64.6919 81,65.5C 79.5604,63.9544 77.7271,63.121 75.5,63C 76.5634,61.8118 77.8967,61.3118 79.5,61.5C 79.3537,59.0576 80.187,58.3909 82,59.5C 82.3742,58.5838 82.8742,57.7504 83.5,57C 82.8742,56.2496 82.3742,55.4162 82,54.5C 80.4842,57.0515 79.6509,56.7181 79.5,53.5C 81.0739,51.8984 81.7406,49.8984 81.5,47.5C 81.4148,46.0047 82.0815,45.0047 83.5,44.5C 84.5127,47.1683 86.1794,49.1683 88.5,50.5 Z"/></g>
<g><path style="opacity:1" fill="#7fad3c" d="M 68.5,54.5 C 69.3382,54.8417 69.6716,55.5084 69.5,56.5C 69.8588,58.371 70.8588,59.871 72.5,61C 71.6198,62.3561 71.2865,63.8561 71.5,65.5C 69.4458,65.6347 67.7791,64.968 66.5,63.5C 66.4142,62.5041 66.7476,61.6708 67.5,61C 66.8333,60.6667 66.1667,60.3333 65.5,60C 66.4506,59.2825 66.6172,58.4491 66,57.5C 65.3457,58.6956 64.8457,58.6956 64.5,57.5C 65.5884,56.0656 66.9217,55.0656 68.5,54.5 Z"/></g>
<g><path style="opacity:1" fill="#618d39" d="M 79.5,53.5 C 79.6509,56.7181 80.4842,57.0515 82,54.5C 82.3742,55.4162 82.8742,56.2496 83.5,57C 82.8742,57.7504 82.3742,58.5838 82,59.5C 80.187,58.3909 79.3537,59.0576 79.5,61.5C 77.8967,61.3118 76.5634,61.8118 75.5,63C 77.7271,63.121 79.5604,63.9544 81,65.5C 81.3076,64.6919 81.8076,64.0253 82.5,63.5C 83.781,67.5526 82.4477,68.8859 78.5,67.5C 76.8514,66.286 75.1848,64.9527 73.5,63.5C 71.2601,65.9607 70.9267,68.6274 72.5,71.5C 72.1179,74.6463 72.1179,77.6463 72.5,80.5C 72.67,81.8221 72.3366,82.9887 71.5,84C 74.1667,85.6667 74.1667,87.3333 71.5,89C 73.9316,90.0875 73.5983,90.5875 70.5,90.5C 70.5,91.5 70.5,92.5 70.5,93.5C 68.4677,92.9522 67.4677,91.6188 67.5,89.5C 67.9528,88.5416 68.6195,87.7083 69.5,87C 67.9337,84.0696 67.1004,80.9029 67,77.5C 66.2208,74.9028 65.7208,74.9028 65.5,77.5C 64.8333,77.5 64.5,77.1667 64.5,76.5C 64.3398,74.8008 64.5065,73.1341 65,71.5C 65.3333,71.8333 65.6667,72.1667 66,72.5C 66.346,70.7818 66.846,69.1151 67.5,67.5C 66.5,66.8333 65.5,66.1667 64.5,65.5C 65.2427,64.8182 65.9094,64.1515 66.5,63.5C 67.7791,64.968 69.4458,65.6347 71.5,65.5C 71.2865,63.8561 71.6198,62.3561 72.5,61C 70.8588,59.871 69.8588,58.371 69.5,56.5C 70.7498,56.5774 71.5831,57.244 72,58.5C 72.4643,57.9056 72.631,57.2389 72.5,56.5C 73.1667,55.8333 73.8333,55.1667 74.5,54.5C 74.3832,56.4835 75.0499,58.1502 76.5,59.5C 77.2309,57.5988 77.2309,55.5988 76.5,53.5C 77.5,53.5 78.5,53.5 79.5,53.5 Z"/></g>
<g><path style="opacity:1" fill="#365c2f" d="M 48.5,58.5 C 47.7611,58.369 47.0944,58.5357 46.5,59C 47.2489,60.7337 47.7489,62.567 48,64.5C 48.3333,63.1667 48.6667,61.8333 49,60.5C 50.0674,61.1905 51.2341,61.6905 52.5,62C 50.3234,63.1861 49.3234,65.0194 49.5,67.5C 48.325,67.281 47.325,67.6143 46.5,68.5C 47.1787,70.111 48.1787,71.7777 49.5,73.5C 51.6737,74.4481 54.007,75.4481 56.5,76.5C 58.059,75.5535 59.7257,74.8868 61.5,74.5C 62.4764,75.1953 63.4764,75.862 64.5,76.5C 64.5,77.1667 64.8333,77.5 65.5,77.5C 65.6495,78.552 65.4828,79.552 65,80.5C 63.1843,80.6491 61.351,80.6491 59.5,80.5C 59.5654,80.0618 59.3988,79.7284 59,79.5C 58.2276,80.8491 57.0609,81.6824 55.5,82C 58.1816,84.3172 58.015,86.4839 55,88.5C 54.6667,87.8333 54.3333,87.1667 54,86.5C 53.7216,87.4158 53.2216,88.0825 52.5,88.5C 52.0798,86.326 52.0798,84.326 52.5,82.5C 49.972,81.1841 49.972,80.0174 52.5,79C 50.4845,78.5757 48.6512,77.7424 47,76.5C 43.4555,78.0008 42.9555,77.5008 45.5,75C 43.3451,73.6431 41.1785,73.4764 39,74.5C 37.5,74 36,73.5 34.5,73C 40.3448,73.1629 44.3448,70.4963 46.5,65C 45.8626,63.2874 44.8626,63.1207 43.5,64.5C 42.2054,63.9017 40.8721,63.4017 39.5,63C 40.1667,62.6667 40.8333,62.3333 41.5,62C 40.4366,60.8118 39.1033,60.3118 37.5,60.5C 37.5,59.1667 38.1667,58.5 39.5,58.5C 41.7761,58.7565 42.9428,60.0898 43,62.5C 44,61.1667 45,61.1667 46,62.5C 46.4561,61.2559 45.9561,60.4226 44.5,60C 44.8333,59.6667 45.1667,59.3333 45.5,59C 39.9875,56.1808 40.3209,54.8474 46.5,55C 45.5,55.3333 44.5,55.6667 43.5,56C 44.6492,57.7441 45.9825,57.9108 47.5,56.5C 48.2975,56.9569 48.6309,57.6236 48.5,58.5 Z"/></g>
<g><path style="opacity:1" fill="#48703f" d="M 49.5,70.5 C 49.5,71.5 49.5,72.5 49.5,73.5C 48.1787,71.7777 47.1787,70.111 46.5,68.5C 47.325,67.6143 48.325,67.281 49.5,67.5C 49.3234,65.0194 50.3234,63.1861 52.5,62C 51.2341,61.6905 50.0674,61.1905 49,60.5C 48.6667,61.8333 48.3333,63.1667 48,64.5C 47.7489,62.567 47.2489,60.7337 46.5,59C 47.0944,58.5357 47.7611,58.369 48.5,58.5C 49.4584,58.9528 50.2917,59.6195 51,60.5C 52.1096,58.9632 53.6096,58.2965 55.5,58.5C 54.3918,56.3049 54.5585,54.3049 56,52.5C 56.8527,56.4686 57.5193,60.4686 58,64.5C 58.5,65 59,65.5 59.5,66C 58.1667,66.6667 57.1667,67.6667 56.5,69C 53.9644,69.1862 51.631,69.6862 49.5,70.5 Z"/></g>
<g><path style="opacity:1" fill="#c4d992" d="M 78.5,67.5 C 78.8333,68.8333 79.1667,70.1667 79.5,71.5C 81.0712,77.0981 79.9045,77.7648 76,73.5C 75.586,73.9574 75.086,74.2907 74.5,74.5C 73.8243,73.3984 73.1577,72.3984 72.5,71.5C 70.9267,68.6274 71.2601,65.9607 73.5,63.5C 75.1848,64.9527 76.8514,66.286 78.5,67.5 Z"/></g>
<g><path style="opacity:1" fill="#548039" d="M 61.5,52.5 C 62.9587,52.5674 64.2921,52.2341 65.5,51.5C 67.1898,51.8564 68.1898,52.8564 68.5,54.5C 66.9217,55.0656 65.5884,56.0656 64.5,57.5C 64.8457,58.6956 65.3457,58.6956 66,57.5C 66.6172,58.4491 66.4506,59.2825 65.5,60C 66.1667,60.3333 66.8333,60.6667 67.5,61C 66.7476,61.6708 66.4142,62.5041 66.5,63.5C 65.9094,64.1515 65.2427,64.8182 64.5,65.5C 65.5,66.1667 66.5,66.8333 67.5,67.5C 66.846,69.1151 66.346,70.7818 66,72.5C 65.6667,72.1667 65.3333,71.8333 65,71.5C 64.5065,73.1341 64.3398,74.8008 64.5,76.5C 63.4764,75.862 62.4764,75.1953 61.5,74.5C 59.7257,74.8868 58.059,75.5535 56.5,76.5C 54.007,75.4481 51.6737,74.4481 49.5,73.5C 49.5,72.5 49.5,71.5 49.5,70.5C 52.7153,70.4052 55.5486,71.4052 58,73.5C 58.5,73.1667 59,72.8333 59.5,72.5C 58.508,70.0193 59.508,68.5193 62.5,68C 61.1667,66.3333 59.8333,64.6667 58.5,63C 59.8491,62.2276 60.6824,61.0609 61,59.5C 61.8333,62 63,62.1667 64.5,60C 63.8971,58.1746 63.2304,56.3413 62.5,54.5C 61.8076,55.0253 61.3076,55.6919 61,56.5C 58.6941,55.8633 57.5275,54.3633 57.5,52C 57.5336,48.8348 58.867,48.0015 61.5,49.5C 60.3473,50.6868 60.3473,51.6868 61.5,52.5 Z"/></g>
<g><path style="opacity:1" fill="#d2e78c" d="M 88.5,50.5 C 89.1667,50.5 89.8333,50.5 90.5,50.5C 92.8269,62.9854 98.1602,73.8187 106.5,83C 108.377,83.5758 110.211,83.4091 112,82.5C 113.434,82.9304 114.601,83.7638 115.5,85C 112.228,90.7502 109.228,96.5836 106.5,102.5C 106.167,103.5 105.5,104.167 104.5,104.5C 103.994,101.569 103.994,98.7354 104.5,96C 103.448,93.3675 101.781,92.5341 99.5,93.5C 98.1861,92.6872 97.0195,91.6872 96,90.5C 95.3086,92.8912 94.3086,92.8912 93,90.5C 91.5822,92.3632 89.7489,92.8632 87.5,92C 86.1031,90.6897 85.1031,89.1897 84.5,87.5C 85.2429,84.4304 87.2429,82.7637 90.5,82.5C 90.6495,81.448 90.4828,80.448 90,79.5C 87.2904,76.6213 84.457,73.9547 81.5,71.5C 83.2789,69.6565 85.6122,68.9898 88.5,69.5C 88.4533,66.4318 87.9533,63.4318 87,60.5C 83.5157,57.0985 84.0157,56.0985 88.5,57.5C 88.5,55.1667 88.5,52.8333 88.5,50.5 Z"/></g>
<g><path style="opacity:1" fill="#3c6035" d="M 24.5,54.5 C 24.8333,54.5 25.1667,54.5 25.5,54.5C 25.0461,56.7411 25.0461,58.7411 25.5,60.5C 26.7525,63.1205 28.0859,65.7872 29.5,68.5C 29.2907,69.086 28.9574,69.586 28.5,70C 29.464,71.7255 30.1307,73.5588 30.5,75.5C 27.454,77.8582 24.1207,79.8582 20.5,81.5C 18.8333,80.6667 17.1667,79.8333 15.5,79C 17.2072,78.8047 18.8739,78.8047 20.5,79C 19.6721,78.0853 18.6721,77.4186 17.5,77C 18.8333,75.6667 20.1667,74.3333 21.5,73C 22.8333,73 24.1667,73 25.5,73C 24.4267,71.7496 24.4267,70.4162 25.5,69C 24.7282,67.779 23.7282,66.779 22.5,66C 24.9677,64.4117 25.1343,62.5784 23,60.5C 22.3457,61.6956 21.8457,61.6956 21.5,60.5C 21.8627,59.8165 22.1961,59.1499 22.5,58.5C 23.2891,58.2172 23.9558,57.7172 24.5,57C 23.4019,56.2303 23.4019,55.397 24.5,54.5 Z"/></g>
<g><path style="opacity:1" fill="#4b7341" d="M 37.5,60.5 C 39.1033,60.3118 40.4366,60.8118 41.5,62C 40.8333,62.3333 40.1667,62.6667 39.5,63C 40.8721,63.4017 42.2054,63.9017 43.5,64.5C 44.8626,63.1207 45.8626,63.2874 46.5,65C 44.3448,70.4963 40.3448,73.1629 34.5,73C 36,73.5 37.5,74 39,74.5C 41.1785,73.4764 43.3451,73.6431 45.5,75C 42.9555,77.5008 43.4555,78.0008 47,76.5C 48.6512,77.7424 50.4845,78.5757 52.5,79C 49.972,80.0174 49.972,81.1841 52.5,82.5C 52.0798,84.326 52.0798,86.326 52.5,88.5C 51.5041,88.5858 50.6708,88.2524 50,87.5C 49.9152,85.9154 49.7486,84.5821 49.5,83.5C 48.9395,85.3772 47.7728,87.3772 46,89.5C 44.4447,91.5152 42.6114,91.8485 40.5,90.5C 41.6087,89.0353 41.1087,88.0353 39,87.5C 38.6667,86.1667 38.3333,84.8333 38,83.5C 37.6532,85.1802 36.6532,86.1802 35,86.5C 33.972,84.6007 32.3053,82.6007 30,80.5C 29.3021,81.6906 28.4687,82.6906 27.5,83.5C 25.8829,84.5893 25.0496,86.256 25,88.5C 24.6397,86.5789 23.8064,84.9122 22.5,83.5C 24.6016,81.9225 27.2683,80.4225 30.5,79C 29.8333,78.6667 29.1667,78.3333 28.5,78C 29.756,77.5831 30.4226,76.7498 30.5,75.5C 30.1307,73.5588 29.464,71.7255 28.5,70C 28.9574,69.586 29.2907,69.086 29.5,68.5C 28.0859,65.7872 26.7525,63.1205 25.5,60.5C 27.8789,60.6752 30.3789,60.0085 33,58.5C 33.1667,58.8333 33.3333,59.1667 33.5,59.5C 31.8872,60.4274 30.2205,61.2607 28.5,62C 29.0253,62.6924 29.6919,63.1924 30.5,63.5C 31.8517,61.3636 33.5183,61.0302 35.5,62.5C 36.6956,62.1543 36.6956,61.6543 35.5,61C 36.0944,60.5357 36.7611,60.369 37.5,60.5 Z"/></g>
<g><path style="opacity:1" fill="#53794d" d="M 22.5,58.5 C 22.1961,59.1499 21.8627,59.8165 21.5,60.5C 21.8457,61.6956 22.3457,61.6956 23,60.5C 25.1343,62.5784 24.9677,64.4117 22.5,66C 23.7282,66.779 24.7282,67.779 25.5,69C 24.4267,70.4162 24.4267,71.7496 25.5,73C 24.1667,73 22.8333,73 21.5,73C 20.1667,74.3333 18.8333,75.6667 17.5,77C 18.6721,77.4186 19.6721,78.0853 20.5,79C 18.8739,78.8047 17.2072,78.8047 15.5,79C 17.1667,79.8333 18.8333,80.6667 20.5,81.5C 24.1207,79.8582 27.454,77.8582 30.5,75.5C 30.4226,76.7498 29.756,77.5831 28.5,78C 29.1667,78.3333 29.8333,78.6667 30.5,79C 27.2683,80.4225 24.6016,81.9225 22.5,83.5C 23.8064,84.9122 24.6397,86.5789 25,88.5C 25.0496,86.256 25.8829,84.5893 27.5,83.5C 28.3764,83.3691 29.0431,83.7025 29.5,84.5C 27.0805,86.9527 25.9138,89.9527 26,93.5C 25.3333,92.1667 24.6667,90.8333 24,89.5C 23.6966,91.8884 22.8633,94.0551 21.5,96C 22.1667,97.6667 22.8333,99.3333 23.5,101C 23.1667,101.333 22.8333,101.667 22.5,102C 24.0441,102.29 25.3774,102.956 26.5,104C 25.0267,104.71 24.3601,105.876 24.5,107.5C 21.5285,104.192 18.5285,100.859 15.5,97.5C 14.0937,97.0269 13.427,96.0269 13.5,94.5C 12.1272,91.8675 11.1272,89.0342 10.5,86C 11.3069,82.1838 11.9735,78.3504 12.5,74.5C 12.3512,71.3926 12.8512,68.3926 14,65.5C 14.1922,67.5767 14.6922,69.5767 15.5,71.5C 16.1519,67.069 15.4852,62.7356 13.5,58.5C 14.6364,58.0357 15.6364,57.7024 16.5,57.5C 19.5983,57.4125 19.9316,57.9125 17.5,59C 19.7672,60.6084 20.7672,59.775 20.5,56.5C 19.448,56.6495 18.448,56.4828 17.5,56C 19.1667,55.3333 20.8333,55.3333 22.5,56C 21.4019,56.7697 21.4019,57.603 22.5,58.5 Z"/></g>
<g><path style="opacity:1" fill="#cadf90" d="M 72.5,71.5 C 73.1577,72.3984 73.8243,73.3984 74.5,74.5C 75.086,74.2907 75.586,73.9574 76,73.5C 79.9045,77.7648 81.0712,77.0981 79.5,71.5C 80.1667,71.5 80.8333,71.5 81.5,71.5C 84.457,73.9547 87.2904,76.6213 90,79.5C 90.4828,80.448 90.6495,81.448 90.5,82.5C 87.2429,82.7637 85.2429,84.4304 84.5,87.5C 83.8333,87.5 83.5,87.8333 83.5,88.5C 81.9236,89.1429 80.5903,90.1429 79.5,91.5C 77.7839,91.3713 76.1172,91.038 74.5,90.5C 75.6965,86.8598 75.0298,83.5265 72.5,80.5C 72.1179,77.6463 72.1179,74.6463 72.5,71.5 Z"/></g>
<g><path style="opacity:1" fill="#8baf5d" d="M 72.5,80.5 C 75.0298,83.5265 75.6965,86.8598 74.5,90.5C 74.6621,92.5273 74.4955,94.5273 74,96.5C 73.6174,97.056 73.1174,97.3893 72.5,97.5C 71.1938,96.5326 70.5271,95.1993 70.5,93.5C 70.5,92.5 70.5,91.5 70.5,90.5C 73.5983,90.5875 73.9316,90.0875 71.5,89C 74.1667,87.3333 74.1667,85.6667 71.5,84C 72.3366,82.9887 72.67,81.8221 72.5,80.5 Z"/></g>
<g><path style="opacity:1" fill="#6a9733" d="M 67.5,89.5 C 67.4677,91.6188 68.4677,92.9522 70.5,93.5C 70.5271,95.1993 71.1938,96.5326 72.5,97.5C 71.3183,101.021 69.3183,104.021 66.5,106.5C 65.5222,106.189 64.8555,105.522 64.5,104.5C 65.2458,103.264 65.5792,101.93 65.5,100.5C 65.5,100.167 65.5,99.8333 65.5,99.5C 65.5,98.5 65.5,97.5 65.5,96.5C 66.675,96.719 67.675,96.3857 68.5,95.5C 66.5756,95.433 64.5756,95.0997 62.5,94.5C 60.1232,91.9338 60.1232,89.2671 62.5,86.5C 64.2012,87.5543 65.8679,88.5543 67.5,89.5 Z"/></g>
<g><path style="opacity:1" fill="#3d6336" d="M 15.5,97.5 C 18.3692,94.7595 18.0359,92.4262 14.5,90.5C 15.4655,89.086 16.4655,88.2526 17.5,88C 17.3333,87.5 17.1667,87 17,86.5C 16.2825,87.4506 15.4491,87.6172 14.5,87C 16.5701,86.0524 18.0701,84.5524 19,82.5C 19.3333,84.1667 19.6667,85.8333 20,87.5C 22.3098,85.0817 22.9764,85.7483 22,89.5C 18.8897,88.3266 18.723,88.8266 21.5,91C 20.0041,93.2012 19.0041,95.7012 18.5,98.5C 17.787,96.565 16.787,96.2317 15.5,97.5 Z"/></g>
<g><path style="opacity:0.993" fill="#d9e2d8" d="M 74.5,90.5 C 76.1172,91.038 77.7839,91.3713 79.5,91.5C 80.6455,93.6672 82.4788,95.0005 85,95.5C 85.0343,97.1796 85.201,98.6796 85.5,100C 86.8989,100.595 88.2322,100.428 89.5,99.5C 93.5344,101.888 97.5344,104.222 101.5,106.5C 101.833,106.5 102.167,106.5 102.5,106.5C 96.0043,113.829 89.0043,120.662 81.5,127C 70.795,132.874 60.1284,132.874 49.5,127C 45.4663,123.002 41.133,119.502 36.5,116.5C 39.1667,116.5 41.8333,116.5 44.5,116.5C 46.4672,116.261 48.3005,116.594 50,117.5C 51.7337,116.751 53.567,116.251 55.5,116C 59.2908,112.803 62.9575,109.636 66.5,106.5C 69.3183,104.021 71.3183,101.021 72.5,97.5C 73.1174,97.3893 73.6174,97.056 74,96.5C 74.4955,94.5273 74.6621,92.5273 74.5,90.5 Z"/></g>
<g><path style="opacity:1" fill="#497532" d="M 67.5,89.5 C 65.8679,88.5543 64.2012,87.5543 62.5,86.5C 60.1232,89.2671 60.1232,91.9338 62.5,94.5C 64.5756,95.0997 66.5756,95.433 68.5,95.5C 67.675,96.3857 66.675,96.719 65.5,96.5C 65.5,97.5 65.5,98.5 65.5,99.5C 63.7201,97.864 62.0535,97.6974 60.5,99C 60.9574,99.414 61.2907,99.914 61.5,100.5C 59.8506,103.877 57.8506,104.21 55.5,101.5C 56.0736,99.9411 56.7402,98.4411 57.5,97C 57.0183,95.9916 56.8516,94.825 57,93.5C 55.8372,95.2852 55.1705,97.2852 55,99.5C 53.4126,98.273 52.0793,98.6063 51,100.5C 50.5348,99.0692 49.7014,97.9025 48.5,97C 49.3366,95.9887 49.67,94.8221 49.5,93.5C 51.4158,91.8843 52.9158,92.2177 54,94.5C 55.3068,93.2283 56.8068,92.2283 58.5,91.5C 58.1667,90.8333 57.8333,90.1667 57.5,89.5C 60.4709,86.9173 61.1375,83.9173 59.5,80.5C 61.351,80.6491 63.1843,80.6491 65,80.5C 65.4828,79.552 65.6495,78.552 65.5,77.5C 65.7208,74.9028 66.2208,74.9028 67,77.5C 67.1004,80.9029 67.9337,84.0696 69.5,87C 68.6195,87.7083 67.9528,88.5416 67.5,89.5 Z"/></g>
<g><path style="opacity:1" fill="#a5c360" d="M 83.5,88.5 C 83.5,87.8333 83.8333,87.5 84.5,87.5C 85.1031,89.1897 86.1031,90.6897 87.5,92C 89.7489,92.8632 91.5822,92.3632 93,90.5C 94.3086,92.8912 95.3086,92.8912 96,90.5C 97.0195,91.6872 98.1861,92.6872 99.5,93.5C 101.781,92.5341 103.448,93.3675 104.5,96C 103.994,98.7354 103.994,101.569 104.5,104.5C 104.167,105.5 103.5,106.167 102.5,106.5C 102.167,106.5 101.833,106.5 101.5,106.5C 96.7301,101.072 91.0635,96.7388 84.5,93.5C 84.4049,91.7855 84.0716,90.1188 83.5,88.5 Z"/></g>
<g><path style="opacity:1" fill="#406735" d="M 59.5,80.5 C 61.1375,83.9173 60.4709,86.9173 57.5,89.5C 57.8333,90.1667 58.1667,90.8333 58.5,91.5C 56.8068,92.2283 55.3068,93.2283 54,94.5C 52.9158,92.2177 51.4158,91.8843 49.5,93.5C 46.0493,96.4308 42.3826,99.2641 38.5,102C 39.5,102.333 40.5,102.667 41.5,103C 40.5399,104.419 39.7065,105.919 39,107.5C 38.2569,105.355 37.4235,105.189 36.5,107C 37.452,108.3 37.452,109.467 36.5,110.5C 35.8076,109.975 35.3076,109.308 35,108.5C 33.4115,110.59 31.5782,112.257 29.5,113.5C 28.1667,112.833 27.1667,111.833 26.5,110.5C 26.573,108.973 25.9063,107.973 24.5,107.5C 24.3601,105.876 25.0267,104.71 26.5,104C 25.3774,102.956 24.0441,102.29 22.5,102C 22.8333,101.667 23.1667,101.333 23.5,101C 22.8333,99.3333 22.1667,97.6667 21.5,96C 22.8633,94.0551 23.6966,91.8884 24,89.5C 24.6667,90.8333 25.3333,92.1667 26,93.5C 25.9138,89.9527 27.0805,86.9527 29.5,84.5C 29.0431,83.7025 28.3764,83.3691 27.5,83.5C 28.4687,82.6906 29.3021,81.6906 30,80.5C 32.3053,82.6007 33.972,84.6007 35,86.5C 36.6532,86.1802 37.6532,85.1802 38,83.5C 38.3333,84.8333 38.6667,86.1667 39,87.5C 41.1087,88.0353 41.6087,89.0353 40.5,90.5C 42.6114,91.8485 44.4447,91.5152 46,89.5C 47.7728,87.3772 48.9395,85.3772 49.5,83.5C 49.7486,84.5821 49.9152,85.9154 50,87.5C 50.6708,88.2524 51.5041,88.5858 52.5,88.5C 53.2216,88.0825 53.7216,87.4158 54,86.5C 54.3333,87.1667 54.6667,87.8333 55,88.5C 58.015,86.4839 58.1816,84.3172 55.5,82C 57.0609,81.6824 58.2276,80.8491 59,79.5C 59.3988,79.7284 59.5654,80.0618 59.5,80.5 Z"/></g>
<g><path style="opacity:1" fill="#84a74d" d="M 83.5,88.5 C 84.0716,90.1188 84.4049,91.7855 84.5,93.5C 91.0635,96.7388 96.7301,101.072 101.5,106.5C 97.5344,104.222 93.5344,101.888 89.5,99.5C 88.2322,100.428 86.8989,100.595 85.5,100C 85.201,98.6796 85.0343,97.1796 85,95.5C 82.4788,95.0005 80.6455,93.6672 79.5,91.5C 80.5903,90.1429 81.9236,89.1429 83.5,88.5 Z"/></g>
<g><path style="opacity:1" fill="#33582a" d="M 49.5,93.5 C 49.67,94.8221 49.3366,95.9887 48.5,97C 49.7014,97.9025 50.5348,99.0692 51,100.5C 52.0793,98.6063 53.4126,98.273 55,99.5C 55.1705,97.2852 55.8372,95.2852 57,93.5C 56.8516,94.825 57.0183,95.9916 57.5,97C 56.7402,98.4411 56.0736,99.9411 55.5,101.5C 57.8506,104.21 59.8506,103.877 61.5,100.5C 61.2907,99.914 60.9574,99.414 60.5,99C 62.0535,97.6974 63.7201,97.864 65.5,99.5C 65.5,99.8333 65.5,100.167 65.5,100.5C 61.2414,103.233 57.4081,106.566 54,110.5C 53.2904,109.027 52.1238,108.36 50.5,108.5C 50.6602,106.801 50.4935,105.134 50,103.5C 49.3333,106.167 48.6667,106.167 48,103.5C 45.2324,104.208 44.3991,105.708 45.5,108C 42.7846,108.717 40.6179,110.217 39,112.5C 38.228,112.355 37.5613,112.022 37,111.5C 37.9805,115.579 40.1472,116.246 43.5,113.5C 44.3857,114.325 44.719,115.325 44.5,116.5C 41.8333,116.5 39.1667,116.5 36.5,116.5C 33.509,116.834 31.1757,115.834 29.5,113.5C 31.5782,112.257 33.4115,110.59 35,108.5C 35.3076,109.308 35.8076,109.975 36.5,110.5C 37.452,109.467 37.452,108.3 36.5,107C 37.4235,105.189 38.2569,105.355 39,107.5C 39.7065,105.919 40.5399,104.419 41.5,103C 40.5,102.667 39.5,102.333 38.5,102C 42.3826,99.2641 46.0493,96.4308 49.5,93.5 Z"/></g>
<g><path style="opacity:0.204" fill="#c9d0c8" d="M 24.5,107.5 C 25.9063,107.973 26.573,108.973 26.5,110.5C 25.0937,110.027 24.427,109.027 24.5,107.5 Z"/></g>
<g><path style="opacity:1" fill="#3b6522" d="M 65.5,100.5 C 65.5792,101.93 65.2458,103.264 64.5,104.5C 64.8555,105.522 65.5222,106.189 66.5,106.5C 62.9575,109.636 59.2908,112.803 55.5,116C 53.567,116.251 51.7337,116.751 50,117.5C 48.3005,116.594 46.4672,116.261 44.5,116.5C 44.719,115.325 44.3857,114.325 43.5,113.5C 40.1472,116.246 37.9805,115.579 37,111.5C 37.5613,112.022 38.228,112.355 39,112.5C 40.6179,110.217 42.7846,108.717 45.5,108C 44.3991,105.708 45.2324,104.208 48,103.5C 48.6667,106.167 49.3333,106.167 50,103.5C 50.4935,105.134 50.6602,106.801 50.5,108.5C 52.1238,108.36 53.2904,109.027 54,110.5C 57.4081,106.566 61.2414,103.233 65.5,100.5 Z"/></g>
</svg>
