<?xml version="1.0" encoding="UTF-8"?>
<!DOCTYPE svg PUBLIC "-//W3C//DTD SVG 1.1//EN" "http://www.w3.org/Graphics/SVG/1.1/DTD/svg11.dtd">
<svg xmlns="http://www.w3.org/2000/svg" version="1.1" width="133px" height="134px" style="shape-rendering:geometricPrecision; text-rendering:geometricPrecision; image-rendering:optimizeQuality; fill-rule:evenodd; clip-rule:evenodd" xmlns:xlink="http://www.w3.org/1999/xlink">
<g><path style="opacity:0.974" fill="#fde5c2" d="M 93.5,16.5 C 94.4706,18.4832 95.4706,20.4832 96.5,22.5C 95.8333,23.8333 94.8333,24.8333 93.5,25.5C 92.207,24.158 91.3736,22.4913 91,20.5C 90.7508,21.624 90.2508,22.624 89.5,23.5C 88.1667,22.8333 86.8333,22.1667 85.5,21.5C 84.8243,22.6016 84.1577,23.6016 83.5,24.5C 80.4011,22.7997 78.4011,23.7997 77.5,27.5C 73.952,29.7045 70.6186,32.0378 67.5,34.5C 65.8624,35.657 64.1957,36.8236 62.5,38C 63.2871,39.313 62.9538,40.4797 61.5,41.5C 59.8564,40.6836 58.6897,39.3502 58,37.5C 57.6667,37.8333 57.3333,38.1667 57,38.5C 55.6626,37.2351 54.1626,36.7351 52.5,37C 53.3279,37.9147 54.3279,38.5814 55.5,39C 55.9426,40.5185 55.2759,41.6852 53.5,42.5C 55.7615,44.0296 55.4282,45.363 52.5,46.5C 52.5,46.1667 52.5,45.8333 52.5,45.5C 49.041,44.1353 45.7076,44.4686 42.5,46.5C 40.8984,48.0739 38.8984,48.7406 36.5,48.5C 31.7679,48.6268 27.7679,50.2935 24.5,53.5C 24.0618,53.4346 23.7284,53.6012 23.5,54C 25.3453,55.128 27.3453,55.628 29.5,55.5C 27.9286,58.2313 25.5952,60.0646 22.5,61C 24.5,61.3333 26.5,61.6667 28.5,62C 21.3943,65.2968 14.3943,68.4634 7.5,71.5C 6.95691,71.56 6.62358,71.8933 6.5,72.5C 10.2103,73.7582 13.877,73.7582 17.5,72.5C 15.1782,74.8359 13.1782,77.5026 11.5,80.5C 10.8333,80.5 10.5,80.8333 10.5,81.5C 9.02561,82.4363 8.02561,83.7697 7.5,85.5C -0.0110973,75.4814 -1.5111,64.4814 3,52.5C 16.7707,36.7272 31.2707,21.5606 46.5,7C 64.9174,-3.64703 80.5841,-0.480363 93.5,16.5 Z"/></g>
<g><path style="opacity:1" fill="#dde1a7" d="M 93.5,16.5 C 95.1288,17.6253 96.6288,18.9586 98,20.5C 98.4186,19.3279 99.0853,18.3279 100,17.5C 100.198,19.3817 100.698,21.0484 101.5,22.5C 100.531,23.3094 99.6979,24.3094 99,25.5C 98.1482,24.4293 97.3149,23.4293 96.5,22.5C 95.4706,20.4832 94.4706,18.4832 93.5,16.5 Z"/></g>
<g><path style="opacity:1" fill="#bbcc74" d="M 93.5,25.5 C 91.1306,28.3394 89.1306,28.006 87.5,24.5C 86.1311,26.124 84.4645,26.624 82.5,26C 83.056,25.6174 83.3893,25.1174 83.5,24.5C 84.1577,23.6016 84.8243,22.6016 85.5,21.5C 86.8333,22.1667 88.1667,22.8333 89.5,23.5C 90.2508,22.624 90.7508,21.624 91,20.5C 91.3736,22.4913 92.207,24.158 93.5,25.5 Z"/></g>
<g><path style="opacity:1" fill="#bed58a" d="M 105.5,25.5 C 105.443,26.609 105.11,27.609 104.5,28.5C 104.167,28.5 103.833,28.5 103.5,28.5C 103.047,27.5416 102.381,26.7083 101.5,26C 102.337,24.9887 102.67,23.8221 102.5,22.5C 103.172,21.7326 104.005,21.0659 105,20.5C 104.904,22.3806 105.071,24.0473 105.5,25.5 Z"/></g>
<g><path style="opacity:1" fill="#dbe9b9" d="M 116.5,25.5 C 115.448,25.3505 114.448,25.5172 113.5,26C 111.309,27.3944 109.975,28.8944 109.5,30.5C 108.5,30 107.5,29.5 106.5,29C 108.053,27.9032 109.386,26.5699 110.5,25C 110.272,24.6012 109.938,24.4346 109.5,24.5C 112.333,21.5362 114.666,21.8695 116.5,25.5 Z"/></g>
<g><path style="opacity:1" fill="#90b63d" d="M 96.5,22.5 C 97.3149,23.4293 98.1482,24.4293 99,25.5C 99.6979,24.3094 100.531,23.3094 101.5,22.5C 101.833,22.5 102.167,22.5 102.5,22.5C 102.67,23.8221 102.337,24.9887 101.5,26C 102.381,26.7083 103.047,27.5416 103.5,28.5C 98.859,29.1023 94.5256,29.769 90.5,30.5C 84.1687,31.1681 79.8354,34.5014 77.5,40.5C 76.6919,40.1924 76.0253,39.6924 75.5,39C 77.6489,36.5154 79.8156,34.0154 82,31.5C 82.7401,30.2506 82.5735,29.2506 81.5,28.5C 81.67,27.1779 81.3366,26.0113 80.5,25C 81.448,24.5172 82.448,24.3505 83.5,24.5C 83.3893,25.1174 83.056,25.6174 82.5,26C 84.4645,26.624 86.1311,26.124 87.5,24.5C 89.1306,28.006 91.1306,28.3394 93.5,25.5C 94.8333,24.8333 95.8333,23.8333 96.5,22.5 Z"/></g>
<g><path style="opacity:1" fill="#afd169" d="M 109.5,24.5 C 109.938,24.4346 110.272,24.6012 110.5,25C 109.386,26.5699 108.053,27.9032 106.5,29C 107.5,29.5 108.5,30 109.5,30.5C 109.975,28.8944 111.309,27.3944 113.5,26C 114.448,25.5172 115.448,25.3505 116.5,25.5C 117.602,27.0919 116.935,27.9252 114.5,28C 114.833,28.3333 115.167,28.6667 115.5,29C 113.881,29.2355 112.881,30.0689 112.5,31.5C 113.167,32.8333 114.167,33.8333 115.5,34.5C 115.737,35.791 115.404,36.791 114.5,37.5C 112.461,36.089 111.461,34.089 111.5,31.5C 109.193,31.0137 107.027,31.0137 105,31.5C 105.109,30.2312 104.942,29.2312 104.5,28.5C 105.11,27.609 105.443,26.609 105.5,25.5C 106.708,24.7659 108.041,24.4326 109.5,24.5 Z"/></g>
<g><path style="opacity:0.553" fill="#e1ecbe" d="M 116.5,25.5 C 118.814,26.1787 119.147,27.512 117.5,29.5C 116.15,30.9501 114.484,31.6168 112.5,31.5C 112.881,30.0689 113.881,29.2355 115.5,29C 115.167,28.6667 114.833,28.3333 114.5,28C 116.935,27.9252 117.602,27.0919 116.5,25.5 Z"/></g>
<g><path style="opacity:1" fill="#9db25e" d="M 83.5,24.5 C 82.448,24.3505 81.448,24.5172 80.5,25C 81.3366,26.0113 81.67,27.1779 81.5,28.5C 81.6309,29.3764 81.2975,30.0431 80.5,30.5C 79.109,29.3554 77.7757,29.3554 76.5,30.5C 80.3605,31.5976 80.3605,32.4309 76.5,33C 75.5324,36.4047 74.0324,36.9047 72,34.5C 70.9085,36.1166 69.4085,37.1166 67.5,37.5C 67.5,36.5 67.5,35.5 67.5,34.5C 70.6186,32.0378 73.952,29.7045 77.5,27.5C 78.4011,23.7997 80.4011,22.7997 83.5,24.5 Z"/></g>
<g><path style="opacity:1" fill="#5e8f22" d="M 103.5,28.5 C 103.833,28.5 104.167,28.5 104.5,28.5C 104.942,29.2312 105.109,30.2312 105,31.5C 107.027,31.0137 109.193,31.0137 111.5,31.5C 111.461,34.089 112.461,36.089 114.5,37.5C 112.924,38.2832 111.591,39.4499 110.5,41C 112.623,43.2452 114.956,45.2452 117.5,47C 116.748,48.8673 115.748,50.7006 114.5,52.5C 114.682,50.4086 114.348,48.4086 113.5,46.5C 112.675,45.6143 111.675,45.281 110.5,45.5C 108.191,44.6123 106.524,42.9456 105.5,40.5C 106.933,38.6635 107.433,36.6635 107,34.5C 105.907,36.3492 104.574,38.0158 103,39.5C 100.448,36.8059 99.2808,37.4726 99.5,41.5C 99.1583,42.3382 98.4916,42.6716 97.5,42.5C 96.6522,41.375 95.6522,41.375 94.5,42.5C 94.9038,41.2436 95.5705,40.0769 96.5,39C 95.8524,37.5603 95.5191,36.0603 95.5,34.5C 92.8728,35.0916 90.2062,35.4249 87.5,35.5C 88.2625,34.7321 89.2625,34.2321 90.5,34C 90.7358,32.8826 90.7358,31.716 90.5,30.5C 94.5256,29.769 98.859,29.1023 103.5,28.5 Z"/></g>
<g><path style="opacity:1" fill="#3f6417" d="M 94.5,42.5 C 94.5654,42.9382 94.3988,43.2716 94,43.5C 93.7265,41.6711 92.8932,40.1711 91.5,39C 91.8333,38.6667 92.1667,38.3333 92.5,38C 90.618,37.8478 88.9514,37.0145 87.5,35.5C 90.2062,35.4249 92.8728,35.0916 95.5,34.5C 95.5191,36.0603 95.8524,37.5603 96.5,39C 95.5705,40.0769 94.9038,41.2436 94.5,42.5 Z"/></g>
<g><path style="opacity:1" fill="#3c6a14" d="M 110.5,45.5 C 106.305,46.9973 104.305,45.3306 104.5,40.5C 102.784,40.6287 101.117,40.962 99.5,41.5C 99.2808,37.4726 100.448,36.8059 103,39.5C 104.574,38.0158 105.907,36.3492 107,34.5C 107.433,36.6635 106.933,38.6635 105.5,40.5C 106.524,42.9456 108.191,44.6123 110.5,45.5 Z"/></g>
<g><path style="opacity:1" fill="#c8c790" d="M 61.5,41.5 C 58.8727,41.7903 57.2061,43.1236 56.5,45.5C 56.33,46.8221 56.6634,47.9887 57.5,49C 56.5842,49.2784 55.9175,49.7784 55.5,50.5C 54.1667,50.8333 52.8333,51.1667 51.5,51.5C 51.8333,50.8333 52.1667,50.1667 52.5,49.5C 53.8333,48.8333 53.8333,48.1667 52.5,47.5C 52.5,47.1667 52.5,46.8333 52.5,46.5C 55.4282,45.363 55.7615,44.0296 53.5,42.5C 55.2759,41.6852 55.9426,40.5185 55.5,39C 54.3279,38.5814 53.3279,37.9147 52.5,37C 54.1626,36.7351 55.6626,37.2351 57,38.5C 57.3333,38.1667 57.6667,37.8333 58,37.5C 58.6897,39.3502 59.8564,40.6836 61.5,41.5 Z"/></g>
<g><path style="opacity:1" fill="#75922d" d="M 81.5,28.5 C 82.5735,29.2506 82.7401,30.2506 82,31.5C 79.8156,34.0154 77.6489,36.5154 75.5,39C 76.0253,39.6924 76.6919,40.1924 77.5,40.5C 79.8354,34.5014 84.1687,31.1681 90.5,30.5C 90.7358,31.716 90.7358,32.8826 90.5,34C 89.2625,34.2321 88.2625,34.7321 87.5,35.5C 88.9514,37.0145 90.618,37.8478 92.5,38C 92.1667,38.3333 91.8333,38.6667 91.5,39C 92.8932,40.1711 93.7265,41.6711 94,43.5C 94.3988,43.2716 94.5654,42.9382 94.5,42.5C 95.6522,41.375 96.6522,41.375 97.5,42.5C 95.703,43.393 94.3696,44.7263 93.5,46.5C 93.6567,47.8734 93.49,49.2068 93,50.5C 92.6924,49.6919 92.1924,49.0253 91.5,48.5C 89.5675,49.5202 87.5675,49.6869 85.5,49C 87.7006,47.9568 90.0339,47.1235 92.5,46.5C 90.9936,45.2528 89.4936,45.2528 88,46.5C 86.6861,45.6872 85.5195,44.6872 84.5,43.5C 83.52,46.0865 83.1866,48.7531 83.5,51.5C 82.448,51.6495 81.448,51.4828 80.5,51C 83.4619,43.1897 82.6285,42.6897 78,49.5C 78.2068,47.2487 78.3735,44.9154 78.5,42.5C 76.6776,42.8308 75.0109,43.4975 73.5,44.5C 73.631,43.7611 73.4643,43.0944 73,42.5C 71.9148,43.2931 70.7481,43.9598 69.5,44.5C 69.9421,41.9688 69.2754,39.6355 67.5,37.5C 69.4085,37.1166 70.9085,36.1166 72,34.5C 74.0324,36.9047 75.5324,36.4047 76.5,33C 80.3605,32.4309 80.3605,31.5976 76.5,30.5C 77.7757,29.3554 79.109,29.3554 80.5,30.5C 81.2975,30.0431 81.6309,29.3764 81.5,28.5 Z"/></g>
<g><path style="opacity:0.965" fill="#fce3c0" d="M 115.5,34.5 C 117.561,39.8583 121.061,44.8583 126,49.5C 132.264,61.0577 131.93,72.3911 125,83.5C 110.833,97.6667 96.6667,111.833 82.5,126C 69.6687,133.735 57.3354,133.069 45.5,124C 33.8627,112.189 22.5293,101.022 11.5,90.5C 11.0269,89.0937 10.0269,88.427 8.5,88.5C 8.67158,87.5084 8.33825,86.8417 7.5,86.5C 7.5,86.1667 7.5,85.8333 7.5,85.5C 8.02561,83.7697 9.02561,82.4363 10.5,81.5C 10.5,82.1667 10.8333,82.5 11.5,82.5C 11.9418,83.2312 12.1085,84.2312 12,85.5C 12.3826,84.944 12.8826,84.6107 13.5,84.5C 17.3767,83.2885 21.0434,81.6219 24.5,79.5C 25.4916,79.3284 26.1583,79.6618 26.5,80.5C 23.9959,81.5839 21.6626,82.9172 19.5,84.5C 12.2394,88.0089 12.2394,89.5089 19.5,89C 25.6735,86.4119 31.6735,83.5786 37.5,80.5C 35.8346,84.495 34.1679,88.495 32.5,92.5C 30.3941,94.2716 28.7274,96.4383 27.5,99C 28.6667,99.5 29.5,100.333 30,101.5C 31.129,99.8588 32.629,98.8588 34.5,98.5C 35.4793,99.7653 36.4793,101.099 37.5,102.5C 40.2085,100.734 42.2085,98.4006 43.5,95.5C 46.0251,91.1038 49.0251,87.1038 52.5,83.5C 52.8047,88.7616 52.4714,93.9283 51.5,99C 52.8491,99.7724 53.6824,100.939 54,102.5C 54.3333,101.833 54.6667,101.167 55,100.5C 55.1981,102.382 55.6981,104.048 56.5,105.5C 56.7086,106.922 57.2086,108.255 58,109.5C 61.2519,104.244 63.4186,98.5771 64.5,92.5C 65.1667,92.1667 65.8333,91.8333 66.5,91.5C 66.5,93.1667 66.5,94.8333 66.5,96.5C 65.6586,100.162 64.9919,103.995 64.5,108C 64.7124,110.982 65.8791,113.482 68,115.5C 68.2321,114.263 68.7321,113.263 69.5,112.5C 71.3243,106.202 72.991,99.8691 74.5,93.5C 75.404,94.209 75.7373,95.209 75.5,96.5C 75.9963,99.9793 76.9963,103.313 78.5,106.5C 79.325,107.386 80.325,107.719 81.5,107.5C 81.8235,100.978 81.4902,94.6446 80.5,88.5C 79.9099,84.3967 78.9099,80.3967 77.5,76.5C 76.4767,74.1542 75.4767,71.8209 74.5,69.5C 77.5,69.5 80.5,69.5 83.5,69.5C 84.5862,69.62 85.2528,70.2867 85.5,71.5C 85.1543,72.8492 84.821,74.1825 84.5,75.5C 83.7109,75.7828 83.0442,76.2828 82.5,77C 84.1667,77.6667 85.8333,77.6667 87.5,77C 88.1634,75.4815 89.1634,74.3149 90.5,73.5C 90.369,74.2389 90.5357,74.9056 91,75.5C 92.0113,74.6634 93.1779,74.33 94.5,74.5C 94.5,75.8333 94.5,77.1667 94.5,78.5C 97.98,78.6145 99.98,76.9478 100.5,73.5C 101.12,71.0233 102.12,71.0233 103.5,73.5C 104.183,73.1373 104.85,72.8039 105.5,72.5C 108.4,75.7855 112.067,77.7855 116.5,78.5C 117.178,76.1421 117.512,73.9754 117.5,72C 115.109,70.6914 115.109,69.6914 117.5,69C 114.544,66.3874 112.211,63.8874 110.5,61.5C 109.833,61.1667 109.167,60.8333 108.5,60.5C 109.263,59.7321 110.263,59.2321 111.5,59C 111.043,58.586 110.709,58.086 110.5,57.5C 111.524,56.1482 112.524,54.8149 113.5,53.5C 114.167,53.5 114.5,53.1667 114.5,52.5C 115.748,50.7006 116.748,48.8673 117.5,47C 114.956,45.2452 112.623,43.2452 110.5,41C 111.591,39.4499 112.924,38.2832 114.5,37.5C 115.404,36.791 115.737,35.791 115.5,34.5 Z"/></g>
<g><path style="opacity:1" fill="#aec17b" d="M 67.5,34.5 C 67.5,35.5 67.5,36.5 67.5,37.5C 69.2754,39.6355 69.9421,41.9688 69.5,44.5C 70.7481,43.9598 71.9148,43.2931 73,42.5C 73.4643,43.0944 73.631,43.7611 73.5,44.5C 73.8333,45.1667 74.1667,45.8333 74.5,46.5C 73.6522,47.625 72.6522,47.625 71.5,46.5C 66.6946,45.5128 61.6946,45.1795 56.5,45.5C 57.2061,43.1236 58.8727,41.7903 61.5,41.5C 62.9538,40.4797 63.2871,39.313 62.5,38C 64.1957,36.8236 65.8624,35.657 67.5,34.5 Z"/></g>
<g><path style="opacity:1" fill="#fdb57e" d="M 52.5,45.5 C 49.2345,47.1587 45.9012,47.4921 42.5,46.5C 45.7076,44.4686 49.041,44.1353 52.5,45.5 Z"/></g>
<g><path style="opacity:1" fill="#2d4f12" d="M 110.5,45.5 C 111.675,45.281 112.675,45.6143 113.5,46.5C 114.348,48.4086 114.682,50.4086 114.5,52.5C 114.5,53.1667 114.167,53.5 113.5,53.5C 113.093,52.2382 112.76,50.9049 112.5,49.5C 111.676,51.4206 110.343,52.754 108.5,53.5C 108.5,53.1667 108.5,52.8333 108.5,52.5C 108.611,51.8826 108.944,51.3826 109.5,51C 107.579,50.6397 105.912,49.8064 104.5,48.5C 102.925,49.4565 101.258,50.1231 99.5,50.5C 97.678,48.9899 95.678,47.6566 93.5,46.5C 94.3696,44.7263 95.703,43.393 97.5,42.5C 98.4916,42.6716 99.1583,42.3382 99.5,41.5C 101.117,40.962 102.784,40.6287 104.5,40.5C 104.305,45.3306 106.305,46.9973 110.5,45.5 Z"/></g>
<g><path style="opacity:1" fill="#9aac32" d="M 56.5,45.5 C 61.6946,45.1795 66.6946,45.5128 71.5,46.5C 69.0987,47.0488 66.7654,47.8822 64.5,49C 65.464,50.7255 66.1307,52.5588 66.5,54.5C 65.5041,54.4142 64.6708,54.7476 64,55.5C 63.5357,54.9056 63.369,54.2389 63.5,53.5C 63.6107,52.8826 63.944,52.3826 64.5,52C 62.9651,51.5038 61.4651,51.6705 60,52.5C 58.5936,51.5862 57.0936,50.9195 55.5,50.5C 55.9175,49.7784 56.5842,49.2784 57.5,49C 56.6634,47.9887 56.33,46.8221 56.5,45.5 Z"/></g>
<g><path style="opacity:1" fill="#647523" d="M 71.5,46.5 C 72.6522,47.625 73.6522,47.625 74.5,46.5C 75.8333,47.8333 75.8333,49.1667 74.5,50.5C 73.7494,49.4265 72.7494,49.2599 71.5,50C 69.9168,51.7583 68.2501,53.2583 66.5,54.5C 66.1307,52.5588 65.464,50.7255 64.5,49C 66.7654,47.8822 69.0987,47.0488 71.5,46.5 Z"/></g>
<g><path style="opacity:1" fill="#425522" d="M 83.5,51.5 C 84.2679,52.2625 84.7679,53.2625 85,54.5C 85.3333,54.1667 85.6667,53.8333 86,53.5C 86.4828,54.448 86.6495,55.448 86.5,56.5C 86.2488,58.1703 85.5822,59.6703 84.5,61C 85.7932,61.49 87.1266,61.6567 88.5,61.5C 89.525,61.8966 89.6917,62.5632 89,63.5C 86.5699,64.998 84.7366,66.998 83.5,69.5C 80.5,69.5 77.5,69.5 74.5,69.5C 74.5,68.5 74.5,67.5 74.5,66.5C 81.7254,68.2525 83.7254,65.9192 80.5,59.5C 82.1207,59.2131 83.1207,58.2131 83.5,56.5C 82.4425,56.0941 81.1092,56.0941 79.5,56.5C 79.5923,52.9286 77.9257,51.7619 74.5,53C 75.305,54.1127 75.9717,55.2794 76.5,56.5C 75.8333,56.5 75.1667,56.5 74.5,56.5C 73.2584,54.6112 73.2584,52.6112 74.5,50.5C 75.8333,49.1667 75.8333,47.8333 74.5,46.5C 74.1667,45.8333 73.8333,45.1667 73.5,44.5C 75.0109,43.4975 76.6776,42.8308 78.5,42.5C 78.3735,44.9154 78.2068,47.2487 78,49.5C 82.6285,42.6897 83.4619,43.1897 80.5,51C 81.448,51.4828 82.448,51.6495 83.5,51.5 Z"/></g>
<g><path style="opacity:1" fill="#fc8245" d="M 52.5,45.5 C 52.5,45.8333 52.5,46.1667 52.5,46.5C 52.5,46.8333 52.5,47.1667 52.5,47.5C 47.3902,49.1799 42.0569,49.8466 36.5,49.5C 36.5,49.1667 36.5,48.8333 36.5,48.5C 38.8984,48.7406 40.8984,48.0739 42.5,46.5C 45.9012,47.4921 49.2345,47.1587 52.5,45.5 Z"/></g>
<g><path style="opacity:1" fill="#61812d" d="M 93.5,46.5 C 95.678,47.6566 97.678,48.9899 99.5,50.5C 99.4524,51.5071 100.452,51.8404 102.5,51.5C 102.285,53.1788 102.952,54.1788 104.5,54.5C 106.099,54.7678 107.432,54.4345 108.5,53.5C 110.343,52.754 111.676,51.4206 112.5,49.5C 112.76,50.9049 113.093,52.2382 113.5,53.5C 112.524,54.8149 111.524,56.1482 110.5,57.5C 110.709,58.086 111.043,58.586 111.5,59C 110.263,59.2321 109.263,59.7321 108.5,60.5C 107.504,60.5858 106.671,60.2524 106,59.5C 105.667,60.1667 105.333,60.8333 105,61.5C 104.405,60.1011 104.572,58.7678 105.5,57.5C 104.009,56.7564 102.509,56.0897 101,55.5C 100.075,59.7754 100.909,63.6087 103.5,67C 102.451,67.4922 101.451,67.3256 100.5,66.5C 99.8076,67.0253 99.3076,67.6919 99,68.5C 97.809,63.2326 97.309,57.8993 97.5,52.5C 93.4589,52.5017 92.7923,53.835 95.5,56.5C 93.9547,57.4519 92.288,57.7852 90.5,57.5C 90.5,58.5 90.5,59.5 90.5,60.5C 92.1439,60.7135 93.6439,60.3802 95,59.5C 95.5,60 96,60.5 96.5,61C 95.1667,61.3333 93.8333,61.6667 92.5,62C 93.3567,62.6891 94.0233,63.5224 94.5,64.5C 93.7643,66.5405 92.9309,68.5405 92,70.5C 91.3333,71.8333 90.6667,71.8333 90,70.5C 88.9455,73.0559 87.1122,74.7225 84.5,75.5C 84.821,74.1825 85.1543,72.8492 85.5,71.5C 85.2528,70.2867 84.5862,69.62 83.5,69.5C 84.7366,66.998 86.5699,64.998 89,63.5C 89.6917,62.5632 89.525,61.8966 88.5,61.5C 88.9662,59.7988 88.9662,58.2988 88.5,57C 90.6349,56.2411 91.9682,54.7411 92.5,52.5C 91.2815,52.891 90.4482,52.2244 90,50.5C 89.2838,52.8791 88.1172,54.8791 86.5,56.5C 86.6495,55.448 86.4828,54.448 86,53.5C 85.6667,53.8333 85.3333,54.1667 85,54.5C 84.7679,53.2625 84.2679,52.2625 83.5,51.5C 83.1866,48.7531 83.52,46.0865 84.5,43.5C 85.5195,44.6872 86.6861,45.6872 88,46.5C 89.4936,45.2528 90.9936,45.2528 92.5,46.5C 90.0339,47.1235 87.7006,47.9568 85.5,49C 87.5675,49.6869 89.5675,49.5202 91.5,48.5C 92.1924,49.0253 92.6924,49.6919 93,50.5C 93.49,49.2068 93.6567,47.8734 93.5,46.5 Z"/></g>
<g><path style="opacity:1" fill="#1f3213" d="M 108.5,52.5 C 106.517,52.1568 105.183,52.8235 104.5,54.5C 102.952,54.1788 102.285,53.1788 102.5,51.5C 100.452,51.8404 99.4524,51.5071 99.5,50.5C 101.258,50.1231 102.925,49.4565 104.5,48.5C 105.912,49.8064 107.579,50.6397 109.5,51C 108.944,51.3826 108.611,51.8826 108.5,52.5 Z"/></g>
<g><path style="opacity:1" fill="#fea16b" d="M 36.5,48.5 C 36.5,48.8333 36.5,49.1667 36.5,49.5C 33.0039,52.0479 29.0039,53.3813 24.5,53.5C 27.7679,50.2935 31.7679,48.6268 36.5,48.5 Z"/></g>
<g><path style="opacity:1" fill="#c72813" d="M 52.5,49.5 C 52.1667,50.1667 51.8333,50.8333 51.5,51.5C 51.1667,52.5 50.5,53.1667 49.5,53.5C 47.9991,54.7515 46.3325,55.7515 44.5,56.5C 42.8333,56.5 41.1667,56.5 39.5,56.5C 38.7611,56.631 38.0944,56.4643 37.5,56C 42.0609,52.7596 47.0609,50.593 52.5,49.5 Z"/></g>
<g><path style="opacity:1" fill="#bcc04a" d="M 55.5,50.5 C 57.0936,50.9195 58.5936,51.5862 60,52.5C 61.4651,51.6705 62.9651,51.5038 64.5,52C 63.944,52.3826 63.6107,52.8826 63.5,53.5C 61.0326,53.7549 59.0326,54.7549 57.5,56.5C 56.5275,58.1392 55.1942,59.4726 53.5,60.5C 53.5,58.8333 53.5,57.1667 53.5,55.5C 51.6203,55.7709 50.287,55.1042 49.5,53.5C 50.5,53.1667 51.1667,52.5 51.5,51.5C 52.8333,51.1667 54.1667,50.8333 55.5,50.5 Z"/></g>
<g><path style="opacity:1" fill="#121418" d="M 80.5,59.5 C 79.5525,58.0221 78.2191,57.0221 76.5,56.5C 75.9717,55.2794 75.305,54.1127 74.5,53C 77.9257,51.7619 79.5923,52.9286 79.5,56.5C 81.1092,56.0941 82.4425,56.0941 83.5,56.5C 83.1207,58.2131 82.1207,59.2131 80.5,59.5 Z"/></g>
<g><path style="opacity:1" fill="#c3b893" d="M 108.5,52.5 C 108.5,52.8333 108.5,53.1667 108.5,53.5C 107.432,54.4345 106.099,54.7678 104.5,54.5C 105.183,52.8235 106.517,52.1568 108.5,52.5 Z"/></g>
<g><path style="opacity:1" fill="#f04818" d="M 52.5,47.5 C 53.8333,48.1667 53.8333,48.8333 52.5,49.5C 47.0609,50.593 42.0609,52.7596 37.5,56C 38.0944,56.4643 38.7611,56.631 39.5,56.5C 38.8333,57.1667 38.1667,57.8333 37.5,58.5C 34.3016,59.9342 30.9683,60.4342 27.5,60C 28.5505,58.6152 29.8839,57.6152 31.5,57C 30.9558,56.2828 30.2891,55.7828 29.5,55.5C 27.3453,55.628 25.3453,55.128 23.5,54C 23.7284,53.6012 24.0618,53.4346 24.5,53.5C 29.0039,53.3813 33.0039,52.0479 36.5,49.5C 42.0569,49.8466 47.3902,49.1799 52.5,47.5 Z"/></g>
<g><path style="opacity:1" fill="#5e6413" d="M 63.5,53.5 C 63.369,54.2389 63.5357,54.9056 64,55.5C 64.6708,54.7476 65.5041,54.4142 66.5,54.5C 67.625,55.6522 67.625,56.6522 66.5,57.5C 64.7085,57.366 63.0418,57.6993 61.5,58.5C 59.8007,58.4729 58.4674,57.8062 57.5,56.5C 59.0326,54.7549 61.0326,53.7549 63.5,53.5 Z"/></g>
<g><path style="opacity:1" fill="#c7ac58" d="M 49.5,53.5 C 50.287,55.1042 51.6203,55.7709 53.5,55.5C 53.5,57.1667 53.5,58.8333 53.5,60.5C 53.1583,61.3382 52.4916,61.6716 51.5,61.5C 51.0338,59.7988 51.0338,58.2988 51.5,57C 49.1443,57.0026 46.8109,57.5026 44.5,58.5C 43.537,58.0302 43.537,57.3635 44.5,56.5C 46.3325,55.7515 47.9991,54.7515 49.5,53.5 Z"/></g>
<g><path style="opacity:1" fill="#f2dbb9" d="M 74.5,56.5 C 75.1667,56.5 75.8333,56.5 76.5,56.5C 78.2191,57.0221 79.5525,58.0221 80.5,59.5C 83.7254,65.9192 81.7254,68.2525 74.5,66.5C 74.5,63.1667 74.5,59.8333 74.5,56.5 Z"/></g>
<g><path style="opacity:1" fill="#a3af4a" d="M 74.5,50.5 C 73.2584,52.6112 73.2584,54.6112 74.5,56.5C 74.5,59.8333 74.5,63.1667 74.5,66.5C 73.2921,65.7659 71.9587,65.4326 70.5,65.5C 70.7373,64.209 70.404,63.209 69.5,62.5C 69.5,61.8333 69.5,61.1667 69.5,60.5C 68.6935,59.2719 67.6935,58.2719 66.5,57.5C 67.625,56.6522 67.625,55.6522 66.5,54.5C 68.2501,53.2583 69.9168,51.7583 71.5,50C 72.7494,49.2599 73.7494,49.4265 74.5,50.5 Z"/></g>
<g><path style="opacity:1" fill="#92ac51" d="M 88.5,61.5 C 87.1266,61.6567 85.7932,61.49 84.5,61C 85.5822,59.6703 86.2488,58.1703 86.5,56.5C 88.1172,54.8791 89.2838,52.8791 90,50.5C 90.4482,52.2244 91.2815,52.891 92.5,52.5C 91.9682,54.7411 90.6349,56.2411 88.5,57C 88.9662,58.2988 88.9662,59.7988 88.5,61.5 Z"/></g>
<g><path style="opacity:1" fill="#354f1d" d="M 108.5,60.5 C 109.167,60.8333 109.833,61.1667 110.5,61.5C 109.909,62.1515 109.243,62.8182 108.5,63.5C 109.571,65.3255 108.904,66.4921 106.5,67C 107.844,69.1436 107.51,70.9769 105.5,72.5C 104.85,72.8039 104.183,73.1373 103.5,73.5C 102.12,71.0233 101.12,71.0233 100.5,73.5C 97.1667,73.5 93.8333,73.5 90.5,73.5C 89.1634,74.3149 88.1634,75.4815 87.5,77C 85.8333,77.6667 84.1667,77.6667 82.5,77C 83.0442,76.2828 83.7109,75.7828 84.5,75.5C 87.1122,74.7225 88.9455,73.0559 90,70.5C 90.6667,71.8333 91.3333,71.8333 92,70.5C 92.9309,68.5405 93.7643,66.5405 94.5,64.5C 94.0233,63.5224 93.3567,62.6891 92.5,62C 93.8333,61.6667 95.1667,61.3333 96.5,61C 96,60.5 95.5,60 95,59.5C 93.6439,60.3802 92.1439,60.7135 90.5,60.5C 90.5,59.5 90.5,58.5 90.5,57.5C 92.288,57.7852 93.9547,57.4519 95.5,56.5C 92.7923,53.835 93.4589,52.5017 97.5,52.5C 97.309,57.8993 97.809,63.2326 99,68.5C 99.3076,67.6919 99.8076,67.0253 100.5,66.5C 101.451,67.3256 102.451,67.4922 103.5,67C 100.909,63.6087 100.075,59.7754 101,55.5C 102.509,56.0897 104.009,56.7564 105.5,57.5C 104.572,58.7678 104.405,60.1011 105,61.5C 105.333,60.8333 105.667,60.1667 106,59.5C 106.671,60.2524 107.504,60.5858 108.5,60.5 Z"/></g>
<g><path style="opacity:1" fill="#fd994a" d="M 29.5,55.5 C 30.2891,55.7828 30.9558,56.2828 31.5,57C 29.8839,57.6152 28.5505,58.6152 27.5,60C 30.9683,60.4342 34.3016,59.9342 37.5,58.5C 38.0431,58.56 38.3764,58.8933 38.5,59.5C 29.7308,66.9527 20.7308,73.9527 11.5,80.5C 13.1782,77.5026 15.1782,74.8359 17.5,72.5C 20.6297,71.4278 23.2964,69.5945 25.5,67C 25.1667,66.8333 24.8333,66.6667 24.5,66.5C 18.9968,68.7987 13.3302,70.4654 7.5,71.5C 14.3943,68.4634 21.3943,65.2968 28.5,62C 26.5,61.6667 24.5,61.3333 22.5,61C 25.5952,60.0646 27.9286,58.2313 29.5,55.5 Z"/></g>
<g><path style="opacity:1" fill="#88671e" d="M 57.5,56.5 C 58.4674,57.8062 59.8007,58.4729 61.5,58.5C 59.5,61.1667 57.1667,63.5 54.5,65.5C 54.0618,65.5654 53.7284,65.3988 53.5,65C 57.7776,61.824 57.4443,60.9907 52.5,62.5C 51.8333,62.5 51.5,62.1667 51.5,61.5C 52.4916,61.6716 53.1583,61.3382 53.5,60.5C 55.1942,59.4726 56.5275,58.1392 57.5,56.5 Z"/></g>
<g><path style="opacity:1" fill="#fb9b51" d="M 66.5,57.5 C 67.6935,58.2719 68.6935,59.2719 69.5,60.5C 67.0471,61.8165 64.3805,62.6498 61.5,63C 60.1667,63.6667 60.1667,64.3333 61.5,65C 60.2625,65.2321 59.2625,65.7321 58.5,66.5C 57.4975,68.0109 56.8308,69.6776 56.5,71.5C 54.6776,71.8308 53.0109,72.4975 51.5,73.5C 51.5,72.1667 50.8333,71.5 49.5,71.5C 51.1667,69.5 52.8333,67.5 54.5,65.5C 57.1667,63.5 59.5,61.1667 61.5,58.5C 63.0418,57.6993 64.7085,57.366 66.5,57.5 Z"/></g>
<g><path style="opacity:1" fill="#8b6232" d="M 69.5,62.5 C 70.404,63.209 70.7373,64.209 70.5,65.5C 66.8317,66.347 66.4984,65.347 69.5,62.5 Z"/></g>
<g><path style="opacity:1" fill="#fc7228" d="M 39.5,56.5 C 41.1667,56.5 42.8333,56.5 44.5,56.5C 43.537,57.3635 43.537,58.0302 44.5,58.5C 46.8109,57.5026 49.1443,57.0026 51.5,57C 51.0338,58.2988 51.0338,59.7988 51.5,61.5C 51.5,62.1667 51.8333,62.5 52.5,62.5C 52.6495,63.552 52.4828,64.552 52,65.5C 48.4225,68.9941 45.5892,72.9941 43.5,77.5C 43.3605,79.337 42.6939,79.6704 41.5,78.5C 43.7609,72.8114 46.4275,67.3114 49.5,62C 47.2285,62.0768 45.5618,63.2435 44.5,65.5C 36.9119,69.1263 30.2452,73.793 24.5,79.5C 21.0434,81.6219 17.3767,83.2885 13.5,84.5C 17.5927,80.0706 22.2594,76.404 27.5,73.5C 30.8795,71.0037 34.5461,68.837 38.5,67C 39.7159,65.406 41.0493,63.906 42.5,62.5C 41.9984,61.479 41.3317,61.3123 40.5,62C 36.4031,64.3696 32.7365,67.2029 29.5,70.5C 23.202,74.1455 17.202,78.1455 11.5,82.5C 10.8333,82.5 10.5,82.1667 10.5,81.5C 10.5,80.8333 10.8333,80.5 11.5,80.5C 20.7308,73.9527 29.7308,66.9527 38.5,59.5C 38.3764,58.8933 38.0431,58.56 37.5,58.5C 38.1667,57.8333 38.8333,57.1667 39.5,56.5 Z"/></g>
<g><path style="opacity:1" fill="#fd9f49" d="M 27.5,73.5 C 28.1667,72.5 28.8333,71.5 29.5,70.5C 32.7365,67.2029 36.4031,64.3696 40.5,62C 41.3317,61.3123 41.9984,61.479 42.5,62.5C 41.0493,63.906 39.7159,65.406 38.5,67C 34.5461,68.837 30.8795,71.0037 27.5,73.5 Z"/></g>
<g><path style="opacity:1" fill="#fc8b55" d="M 58.5,66.5 C 59.4959,66.4142 60.3292,66.7476 61,67.5C 60.6446,68.9594 60.8112,70.2928 61.5,71.5C 60.8333,72.5 60.1667,73.5 59.5,74.5C 53.5271,79.8063 47.8604,85.4729 42.5,91.5C 40.1829,92.8198 38.1829,94.4864 36.5,96.5C 36.634,94.7085 36.3007,93.0418 35.5,91.5C 38.5365,87.9638 42.0365,84.9638 46,82.5C 46.5754,78.6613 48.4087,75.6613 51.5,73.5C 53.0109,72.4975 54.6776,71.8308 56.5,71.5C 56.8308,69.6776 57.4975,68.0109 58.5,66.5 Z"/></g>
<g><path style="opacity:1" fill="#4b2219" d="M 67.5,67.5 C 67.5,68.1667 67.5,68.8333 67.5,69.5C 66.5655,70.5676 66.2322,71.901 66.5,73.5C 65.5,73.5 64.5,73.5 63.5,73.5C 63.5,72.5 63.5,71.5 63.5,70.5C 64.6366,69.2112 65.9699,68.2112 67.5,67.5 Z"/></g>
<g><path style="opacity:1" fill="#688647" d="M 110.5,61.5 C 112.211,63.8874 114.544,66.3874 117.5,69C 115.109,69.6914 115.109,70.6914 117.5,72C 117.512,73.9754 117.178,76.1421 116.5,78.5C 112.067,77.7855 108.4,75.7855 105.5,72.5C 107.51,70.9769 107.844,69.1436 106.5,67C 108.904,66.4921 109.571,65.3255 108.5,63.5C 109.243,62.8182 109.909,62.1515 110.5,61.5 Z"/></g>
<g><path style="opacity:1" fill="#f6783b" d="M 69.5,60.5 C 69.5,61.1667 69.5,61.8333 69.5,62.5C 66.4984,65.347 66.8317,66.347 70.5,65.5C 71.9587,65.4326 73.2921,65.7659 74.5,66.5C 74.5,67.5 74.5,68.5 74.5,69.5C 75.4767,71.8209 76.4767,74.1542 77.5,76.5C 75.9016,78.8567 74.9016,81.5234 74.5,84.5C 74.6567,83.1266 74.49,81.7932 74,80.5C 73.3828,85.2532 72.3828,89.9199 71,94.5C 70.6667,93.5 70.3333,92.5 70,91.5C 69.7679,92.7375 69.2679,93.7375 68.5,94.5C 68.5,89.8333 68.5,85.1667 68.5,80.5C 69.5,80.5 70.5,80.5 71.5,80.5C 71.3285,78.5082 71.9951,76.8415 73.5,75.5C 72.1097,73.7971 70.6097,73.1304 69,73.5C 68.8091,71.2922 68.3091,69.2922 67.5,67.5C 65.9699,68.2112 64.6366,69.2112 63.5,70.5C 62.8333,70.5 62.5,70.8333 62.5,71.5C 62.1667,71.5 61.8333,71.5 61.5,71.5C 60.8112,70.2928 60.6446,68.9594 61,67.5C 60.3292,66.7476 59.4959,66.4142 58.5,66.5C 59.2625,65.7321 60.2625,65.2321 61.5,65C 60.1667,64.3333 60.1667,63.6667 61.5,63C 64.3805,62.6498 67.0471,61.8165 69.5,60.5 Z"/></g>
<g><path style="opacity:1" fill="#fb561b" d="M 17.5,72.5 C 13.877,73.7582 10.2103,73.7582 6.5,72.5C 6.62358,71.8933 6.95691,71.56 7.5,71.5C 13.3302,70.4654 18.9968,68.7987 24.5,66.5C 24.8333,66.6667 25.1667,66.8333 25.5,67C 23.2964,69.5945 20.6297,71.4278 17.5,72.5 Z"/></g>
<g><path style="opacity:1" fill="#ea3713" d="M 44.5,65.5 C 43.5592,67.0495 42.8925,68.7162 42.5,70.5C 36.8584,73.3218 31.5251,76.6552 26.5,80.5C 26.1583,79.6618 25.4916,79.3284 24.5,79.5C 30.2452,73.793 36.9119,69.1263 44.5,65.5 Z"/></g>
<g><path style="opacity:1" fill="#ec4e16" d="M 54.5,65.5 C 52.8333,67.5 51.1667,69.5 49.5,71.5C 47.8333,73.8333 45.8333,75.8333 43.5,77.5C 45.5892,72.9941 48.4225,68.9941 52,65.5C 52.4828,64.552 52.6495,63.552 52.5,62.5C 57.4443,60.9907 57.7776,61.824 53.5,65C 53.7284,65.3988 54.0618,65.5654 54.5,65.5 Z"/></g>
<g><path style="opacity:1" fill="#7f0e16" d="M 63.5,70.5 C 63.5,71.5 63.5,72.5 63.5,73.5C 64.5,73.5 65.5,73.5 66.5,73.5C 66.5,74.8333 66.5,76.1667 66.5,77.5C 65.1667,77.5 63.8333,77.5 62.5,77.5C 62.5,75.5 62.5,73.5 62.5,71.5C 62.5,70.8333 62.8333,70.5 63.5,70.5 Z"/></g>
<g><path style="opacity:1" fill="#77884c" d="M 90.5,73.5 C 93.8333,73.5 97.1667,73.5 100.5,73.5C 99.98,76.9478 97.98,78.6145 94.5,78.5C 94.5,77.1667 94.5,75.8333 94.5,74.5C 93.1779,74.33 92.0113,74.6634 91,75.5C 90.5357,74.9056 90.369,74.2389 90.5,73.5 Z"/></g>
<g><path style="opacity:1" fill="#fdbd73" d="M 29.5,70.5 C 28.8333,71.5 28.1667,72.5 27.5,73.5C 22.2594,76.404 17.5927,80.0706 13.5,84.5C 12.8826,84.6107 12.3826,84.944 12,85.5C 12.1085,84.2312 11.9418,83.2312 11.5,82.5C 17.202,78.1455 23.202,74.1455 29.5,70.5 Z"/></g>
<g><path style="opacity:1" fill="#fc9258" d="M 42.5,70.5 C 41.7368,72.3684 40.7368,74.0351 39.5,75.5C 37.8211,75.8923 36.1545,76.3923 34.5,77C 29.9163,80.5905 25.0829,83.7571 20,86.5C 19.5357,85.9056 19.369,85.2389 19.5,84.5C 21.6626,82.9172 23.9959,81.5839 26.5,80.5C 31.5251,76.6552 36.8584,73.3218 42.5,70.5 Z"/></g>
<g><path style="opacity:1" fill="#e33d1c" d="M 59.5,74.5 C 60.1098,75.391 60.4431,76.391 60.5,77.5C 58.4451,79.5547 56.1117,81.2213 53.5,82.5C 52.8333,82.5 52.5,82.8333 52.5,83.5C 49.0251,87.1038 46.0251,91.1038 43.5,95.5C 42.5655,94.4324 42.2322,93.099 42.5,91.5C 47.8604,85.4729 53.5271,79.8063 59.5,74.5 Z"/></g>
<g><path style="opacity:1" fill="#fa7032" d="M 39.5,75.5 C 39.1075,77.2838 38.4408,78.9505 37.5,80.5C 31.6735,83.5786 25.6735,86.4119 19.5,89C 12.2394,89.5089 12.2394,88.0089 19.5,84.5C 19.369,85.2389 19.5357,85.9056 20,86.5C 25.0829,83.7571 29.9163,80.5905 34.5,77C 36.1545,76.3923 37.8211,75.8923 39.5,75.5 Z"/></g>
<g><path style="opacity:1" fill="#f56127" d="M 67.5,67.5 C 68.3091,69.2922 68.8091,71.2922 69,73.5C 70.6097,73.1304 72.1097,73.7971 73.5,75.5C 71.9951,76.8415 71.3285,78.5082 71.5,80.5C 70.5,80.5 69.5,80.5 68.5,80.5C 68.5,85.1667 68.5,89.8333 68.5,94.5C 68.5,94.8333 68.5,95.1667 68.5,95.5C 67.6909,97.2922 67.1909,99.2922 67,101.5C 66.5065,99.8659 66.3398,98.1992 66.5,96.5C 66.5,94.8333 66.5,93.1667 66.5,91.5C 66.7228,84.1605 67.0561,76.8271 67.5,69.5C 67.5,68.8333 67.5,68.1667 67.5,67.5 Z"/></g>
<g><path style="opacity:1" fill="#f25b22" d="M 77.5,76.5 C 78.9099,80.3967 79.9099,84.3967 80.5,88.5C 79.5638,91.6712 77.8971,94.3379 75.5,96.5C 75.7373,95.209 75.404,94.209 74.5,93.5C 74.5,90.5 74.5,87.5 74.5,84.5C 74.9016,81.5234 75.9016,78.8567 77.5,76.5 Z"/></g>
<g><path style="opacity:1" fill="#b82517" d="M 67.5,69.5 C 67.0561,76.8271 66.7228,84.1605 66.5,91.5C 65.8333,91.8333 65.1667,92.1667 64.5,92.5C 65.2436,88.8815 65.577,85.2148 65.5,81.5C 64.1667,81.5 62.8333,81.5 61.5,81.5C 61.7678,79.901 61.4345,78.5676 60.5,77.5C 60.4431,76.391 60.1098,75.391 59.5,74.5C 60.1667,73.5 60.8333,72.5 61.5,71.5C 61.8333,71.5 62.1667,71.5 62.5,71.5C 62.5,73.5 62.5,75.5 62.5,77.5C 63.8333,77.5 65.1667,77.5 66.5,77.5C 66.5,76.1667 66.5,74.8333 66.5,73.5C 66.2322,71.901 66.5655,70.5676 67.5,69.5 Z"/></g>
<g><path style="opacity:1" fill="#fdad6f" d="M 43.5,77.5 C 45.8333,75.8333 47.8333,73.8333 49.5,71.5C 50.8333,71.5 51.5,72.1667 51.5,73.5C 48.4087,75.6613 46.5754,78.6613 46,82.5C 42.0365,84.9638 38.5365,87.9638 35.5,91.5C 34.609,92.1098 33.609,92.4431 32.5,92.5C 34.1679,88.495 35.8346,84.495 37.5,80.5C 38.4408,78.9505 39.1075,77.2838 39.5,75.5C 40.7368,74.0351 41.7368,72.3684 42.5,70.5C 42.8925,68.7162 43.5592,67.0495 44.5,65.5C 45.5618,63.2435 47.2285,62.0768 49.5,62C 46.4275,67.3114 43.7609,72.8114 41.5,78.5C 42.6939,79.6704 43.3605,79.337 43.5,77.5 Z"/></g>
<g><path style="opacity:0.416" fill="#e4dfc7" d="M 7.5,86.5 C 6.83333,87.1667 6.83333,87.1667 7.5,86.5 Z"/></g>
<g><path style="opacity:1" fill="#f15822" d="M 60.5,77.5 C 61.4345,78.5676 61.7678,79.901 61.5,81.5C 62.8333,81.5 64.1667,81.5 65.5,81.5C 65.577,85.2148 65.2436,88.8815 64.5,92.5C 63.4186,98.5771 61.2519,104.244 58,109.5C 57.2086,108.255 56.7086,106.922 56.5,105.5C 56.3422,100.151 57.5089,95.1509 60,90.5C 60.6667,88.1667 60.6667,85.8333 60,83.5C 59.2588,84.6405 58.4255,84.6405 57.5,83.5C 56.9202,85.6367 55.9202,87.47 54.5,89C 56.9316,90.0875 56.5983,90.5875 53.5,90.5C 53.5,87.8333 53.5,85.1667 53.5,82.5C 56.1117,81.2213 58.4451,79.5547 60.5,77.5 Z"/></g>
<g><path style="opacity:0.071" fill="#fdf5db" d="M 8.5,88.5 C 7.83333,89.1667 7.83333,89.1667 8.5,88.5 Z"/></g>
<g><path style="opacity:0.345" fill="#e3decb" d="M 7.5,89.5 C 6.83333,90.1667 6.83333,90.1667 7.5,89.5 Z"/></g>
<g><path style="opacity:0.38" fill="#fdf4cf" d="M 11.5,90.5 C 11.1034,91.525 10.4368,91.6917 9.5,91C 10.0944,90.5357 10.7611,90.369 11.5,90.5 Z"/></g>
<g><path style="opacity:0.173" fill="#f5f0d8" d="M 5.5,92.5 C 5.89657,91.475 6.56323,91.3083 7.5,92C 6.90558,92.4643 6.23891,92.631 5.5,92.5 Z"/></g>
<g><path style="opacity:1" fill="#fb8947" d="M 53.5,82.5 C 53.5,85.1667 53.5,87.8333 53.5,90.5C 56.5983,90.5875 56.9316,90.0875 54.5,89C 55.9202,87.47 56.9202,85.6367 57.5,83.5C 58.4255,84.6405 59.2588,84.6405 60,83.5C 60.6667,85.8333 60.6667,88.1667 60,90.5C 57.5089,95.1509 56.3422,100.151 56.5,105.5C 55.6981,104.048 55.1981,102.382 55,100.5C 54.6667,101.167 54.3333,101.833 54,102.5C 53.6824,100.939 52.8491,99.7724 51.5,99C 52.4714,93.9283 52.8047,88.7616 52.5,83.5C 52.5,82.8333 52.8333,82.5 53.5,82.5 Z"/></g>
<g><path style="opacity:1" fill="#fb8d51" d="M 74.5,84.5 C 74.5,87.5 74.5,90.5 74.5,93.5C 72.991,99.8691 71.3243,106.202 69.5,112.5C 69.5037,108.973 69.8371,105.473 70.5,102C 70.3248,100.342 69.6582,99.0086 68.5,98C 69.1667,97.6667 69.8333,97.3333 70.5,97C 69.5842,96.7216 68.9175,96.2216 68.5,95.5C 68.5,95.1667 68.5,94.8333 68.5,94.5C 69.2679,93.7375 69.7679,92.7375 70,91.5C 70.3333,92.5 70.6667,93.5 71,94.5C 72.3828,89.9199 73.3828,85.2532 74,80.5C 74.49,81.7932 74.6567,83.1266 74.5,84.5 Z"/></g>
<g><path style="opacity:1" fill="#fc9a45" d="M 35.5,91.5 C 36.3007,93.0418 36.634,94.7085 36.5,96.5C 35.1667,96.5 34.5,97.1667 34.5,98.5C 32.629,98.8588 31.129,99.8588 30,101.5C 29.5,100.333 28.6667,99.5 27.5,99C 28.7274,96.4383 30.3941,94.2716 32.5,92.5C 33.609,92.4431 34.609,92.1098 35.5,91.5 Z"/></g>
<g><path style="opacity:1" fill="#fc6e28" d="M 42.5,91.5 C 42.2322,93.099 42.5655,94.4324 43.5,95.5C 42.2085,98.4006 40.2085,100.734 37.5,102.5C 36.4793,101.099 35.4793,99.7653 34.5,98.5C 34.5,97.1667 35.1667,96.5 36.5,96.5C 38.1829,94.4864 40.1829,92.8198 42.5,91.5 Z"/></g>
<g><path style="opacity:1" fill="#fb7b39" d="M 80.5,88.5 C 81.4902,94.6446 81.8235,100.978 81.5,107.5C 80.325,107.719 79.325,107.386 78.5,106.5C 76.9963,103.313 75.9963,99.9793 75.5,96.5C 77.8971,94.3379 79.5638,91.6712 80.5,88.5 Z"/></g>
<g><path style="opacity:0.035" fill="#f9eedc" d="M 19.5,102.5 C 20.8333,103.167 20.8333,103.167 19.5,102.5 Z"/></g>
<g><path style="opacity:0.173" fill="#dedbd5" d="M 19.5,103.5 C 18.8333,104.167 18.8333,104.167 19.5,103.5 Z"/></g>
<g><path style="opacity:0.173" fill="#dfded5" d="M 21.5,104.5 C 22.8333,105.167 22.8333,105.167 21.5,104.5 Z"/></g>
<g><path style="opacity:1" fill="#fc8036" d="M 68.5,95.5 C 68.9175,96.2216 69.5842,96.7216 70.5,97C 69.8333,97.3333 69.1667,97.6667 68.5,98C 69.6582,99.0086 70.3248,100.342 70.5,102C 69.8371,105.473 69.5037,108.973 69.5,112.5C 68.7321,113.263 68.2321,114.263 68,115.5C 65.8791,113.482 64.7124,110.982 64.5,108C 64.9919,103.995 65.6586,100.162 66.5,96.5C 66.3398,98.1992 66.5065,99.8659 67,101.5C 67.1909,99.2922 67.6909,97.2922 68.5,95.5 Z"/></g>
<g><path style="opacity:0.102" fill="#eeebd8" d="M 29.5,111.5 C 30.8333,112.167 30.8333,112.167 29.5,111.5 Z"/></g>
</svg>
