<?xml version="1.0" encoding="UTF-8"?>
<!DOCTYPE svg PUBLIC "-//W3C//DTD SVG 1.1//EN" "http://www.w3.org/Graphics/SVG/1.1/DTD/svg11.dtd">
<svg xmlns="http://www.w3.org/2000/svg" version="1.1" width="136px" height="135px" style="shape-rendering:geometricPrecision; text-rendering:geometricPrecision; image-rendering:optimizeQuality; fill-rule:evenodd; clip-rule:evenodd" xmlns:xlink="http://www.w3.org/1999/xlink">
<g><path style="opacity:0.996" fill="#e8ebde" d="M 38.5,18.5 C 38.5,20.1667 38.5,21.8333 38.5,23.5C 37.559,28.0704 37.2256,32.737 37.5,37.5C 38.5855,40.4241 39.0855,43.4241 39,46.5C 37.9887,45.6634 36.8221,45.33 35.5,45.5C 34.791,44.596 33.791,44.2627 32.5,44.5C 32.5,45.5 32.5,46.5 32.5,47.5C 30.1305,47.1489 27.7972,46.9822 25.5,47C 28.475,50.8104 32.1416,53.6437 36.5,55.5C 35.9953,60.8335 37.9953,65.1669 42.5,68.5C 44.8123,71.4789 47.4789,74.1456 50.5,76.5C 51.7571,79.8435 51.7571,83.1769 50.5,86.5C 51.325,87.3857 52.325,87.719 53.5,87.5C 53.7036,89.6854 54.3702,91.6854 55.5,93.5C 54.5489,94.9187 54.2155,96.5853 54.5,98.5C 53.0022,101.336 52.6689,104.336 53.5,107.5C 52.6198,109.429 51.6198,111.263 50.5,113C 50.8499,114.257 51.5165,114.591 52.5,114C 53.3281,112.008 54.6614,110.508 56.5,109.5C 57.4345,110.568 57.7678,111.901 57.5,113.5C 57.0766,114.265 56.7432,115.098 56.5,116C 60.1464,120.322 64.813,121.655 70.5,120C 73.0384,118.086 72.7051,116.586 69.5,115.5C 69.5,114.167 69.5,112.833 69.5,111.5C 71.0269,111.427 72.0269,112.094 72.5,113.5C 77.3678,120.274 79.7011,119.94 79.5,112.5C 79.5,112.167 79.5,111.833 79.5,111.5C 80.4959,111.586 81.3292,111.252 82,110.5C 82.746,104.449 82.5793,98.4492 81.5,92.5C 83.1817,90.8441 83.8483,88.1774 83.5,84.5C 84.4665,81.8447 86.1332,81.178 88.5,82.5C 92.9085,76.0257 95.9085,69.0257 97.5,61.5C 99.2994,58.4954 99.9661,55.162 99.5,51.5C 99.0617,49.874 98.7284,48.2073 98.5,46.5C 99.5081,43.1555 100.508,39.8221 101.5,36.5C 101.53,35.5028 101.03,34.8361 100,34.5C 98.7147,34.9504 97.548,35.6171 96.5,36.5C 93.81,32.4346 91.1433,28.4346 88.5,24.5C 88.4431,23.391 88.1098,22.391 87.5,21.5C 87.0113,20.0048 86.3446,18.6715 85.5,17.5C 85.1667,16.5 84.5,15.8333 83.5,15.5C 77.2331,12.0789 71.7331,13.0789 67,18.5C 66.5172,19.448 66.3505,20.448 66.5,21.5C 65.791,22.404 64.791,22.7373 63.5,22.5C 61.9018,22.3903 60.2352,22.057 58.5,21.5C 56.7191,17.93 54.0525,15.2633 50.5,13.5C 47.2096,10.8458 43.8762,10.8458 40.5,13.5C 55.2142,0.0469204 71.2142,-1.45308 88.5,9C 102.696,22.8621 116.529,37.0287 130,51.5C 133.924,63.2283 132.924,74.5617 127,85.5C 112.138,100.696 96.9714,115.529 81.5,130C 70.8208,135.06 60.4875,134.393 50.5,128C 34.6044,112.773 19.4377,96.9397 5,80.5C 0.296831,69.3616 1.29683,58.6949 8,48.5C 18.0349,38.2978 28.2016,28.2978 38.5,18.5 Z"/></g>
<g><path style="opacity:1" fill="#8fba70" d="M 83.5,15.5 C 80.8377,16.6393 78.171,16.8059 75.5,16C 73.8934,17.049 73.2267,18.549 73.5,20.5C 71.1944,20.9926 68.861,21.3259 66.5,21.5C 66.3505,20.448 66.5172,19.448 67,18.5C 71.7331,13.0789 77.2331,12.0789 83.5,15.5 Z"/></g>
<g><path style="opacity:1" fill="#9ec654" d="M 50.5,13.5 C 54.0525,15.2633 56.7191,17.93 58.5,21.5C 57.9841,23.7182 56.9841,25.7182 55.5,27.5C 52.8158,25.627 49.8158,24.627 46.5,24.5C 46.0318,21.0577 47.1984,18.391 50,16.5C 50.4828,15.552 50.6495,14.552 50.5,13.5 Z"/></g>
<g><path style="opacity:1" fill="#72a74b" d="M 83.5,15.5 C 84.5,15.8333 85.1667,16.5 85.5,17.5C 83.2537,17.9361 81.0871,18.6028 79,19.5C 78.0853,18.6721 77.4186,17.6721 77,16.5C 75.129,18.7826 73.629,21.2826 72.5,24C 70.1527,24.3336 67.8194,24.167 65.5,23.5C 65.5,24.5 65.5,25.5 65.5,26.5C 63.8958,25.713 63.2291,24.3797 63.5,22.5C 64.791,22.7373 65.791,22.404 66.5,21.5C 68.861,21.3259 71.1944,20.9926 73.5,20.5C 73.2267,18.549 73.8934,17.049 75.5,16C 78.171,16.8059 80.8377,16.6393 83.5,15.5 Z"/></g>
<g><path style="opacity:1" fill="#559327" d="M 87.5,21.5 C 88.1098,22.391 88.4431,23.391 88.5,24.5C 88.6984,26.5753 88.8651,28.5753 89,30.5C 86.5018,30.73 84.0018,31.0633 81.5,31.5C 83.1329,27.885 85.1329,24.5517 87.5,21.5 Z"/></g>
<g><path style="opacity:1" fill="#3f7919" d="M 85.5,17.5 C 86.3446,18.6715 87.0113,20.0048 87.5,21.5C 85.1329,24.5517 83.1329,27.885 81.5,31.5C 77.9673,32.374 74.634,33.7073 71.5,35.5C 70.3472,33.364 69.0138,31.364 67.5,29.5C 66.8333,28.5 66.1667,27.5 65.5,26.5C 65.5,25.5 65.5,24.5 65.5,23.5C 67.8194,24.167 70.1527,24.3336 72.5,24C 73.629,21.2826 75.129,18.7826 77,16.5C 77.4186,17.6721 78.0853,18.6721 79,19.5C 81.0871,18.6028 83.2537,17.9361 85.5,17.5 Z"/></g>
<g><path style="opacity:1" fill="#8ab932" d="M 50.5,13.5 C 50.6495,14.552 50.4828,15.552 50,16.5C 47.1984,18.391 46.0318,21.0577 46.5,24.5C 49.8158,24.627 52.8158,25.627 55.5,27.5C 56.9841,25.7182 57.9841,23.7182 58.5,21.5C 60.2352,22.057 61.9018,22.3903 63.5,22.5C 63.2291,24.3797 63.8958,25.713 65.5,26.5C 66.1667,27.5 66.8333,28.5 67.5,29.5C 66.4168,29.5394 65.4168,29.8728 64.5,30.5C 63.8076,29.9747 63.3076,29.3081 63,28.5C 62.059,30.0614 60.8924,31.3947 59.5,32.5C 57.4928,30.7966 55.4928,30.4633 53.5,31.5C 52.8902,32.391 52.5569,33.391 52.5,34.5C 51.4168,34.5394 50.4168,34.8728 49.5,35.5C 47.6558,33.1571 45.6558,30.9904 43.5,29C 42.2068,28.51 40.8734,28.3433 39.5,28.5C 39.7845,26.5853 39.4511,24.9187 38.5,23.5C 38.5,21.8333 38.5,20.1667 38.5,18.5C 38.1201,16.302 38.7868,14.6354 40.5,13.5C 43.8762,10.8458 47.2096,10.8458 50.5,13.5 Z"/></g>
<g><path style="opacity:1" fill="#69a01c" d="M 67.5,29.5 C 69.0138,31.364 70.3472,33.364 71.5,35.5C 71.5,36.1667 71.5,36.8333 71.5,37.5C 70.8333,37.5 70.5,37.8333 70.5,38.5C 69.8333,38.5 69.5,38.8333 69.5,39.5C 67.8762,39.3601 66.7096,40.0267 66,41.5C 63.6667,38.8333 61.3333,36.1667 59,33.5C 58.8333,34.1667 58.6667,34.8333 58.5,35.5C 62.5155,41.9796 66.5155,48.3129 70.5,54.5C 70.5,54.8333 70.5,55.1667 70.5,55.5C 70.6747,57.6208 70.3414,59.6208 69.5,61.5C 69.5,62.1667 69.1667,62.5 68.5,62.5C 67.3428,59.7273 66.6761,56.7273 66.5,53.5C 65.1779,53.67 64.0113,53.3366 63,52.5C 62.6667,50.1667 62.3333,47.8333 62,45.5C 61,44.8333 60,44.1667 59,43.5C 57.9571,40.2432 57.4571,36.9099 57.5,33.5C 55.8007,33.4729 54.4674,32.8062 53.5,31.5C 55.4928,30.4633 57.4928,30.7966 59.5,32.5C 60.8924,31.3947 62.059,30.0614 63,28.5C 63.3076,29.3081 63.8076,29.9747 64.5,30.5C 65.4168,29.8728 66.4168,29.5394 67.5,29.5 Z"/></g>
<g><path style="opacity:1" fill="#75a94e" d="M 88.5,24.5 C 91.1433,28.4346 93.81,32.4346 96.5,36.5C 97.548,35.6171 98.7147,34.9504 100,34.5C 101.03,34.8361 101.53,35.5028 101.5,36.5C 99.5512,37.1839 97.8845,38.3506 96.5,40C 94.8659,40.4935 93.1992,40.6602 91.5,40.5C 92.4756,39.1851 93.4756,37.8518 94.5,36.5C 94.2907,35.914 93.9574,35.414 93.5,35C 90.1103,34.7537 86.777,34.2537 83.5,33.5C 82.8933,33.6236 82.56,33.9569 82.5,34.5C 79.4488,37.9642 75.7822,38.9642 71.5,37.5C 71.5,36.8333 71.5,36.1667 71.5,35.5C 74.634,33.7073 77.9673,32.374 81.5,31.5C 84.0018,31.0633 86.5018,30.73 89,30.5C 88.8651,28.5753 88.6984,26.5753 88.5,24.5 Z"/></g>
<g><path style="opacity:1" fill="#50882c" d="M 69.5,39.5 C 66.9817,42.2964 66.9817,44.9631 69.5,47.5C 69.448,49.9029 69.7814,52.2362 70.5,54.5C 66.5155,48.3129 62.5155,41.9796 58.5,35.5C 58.6667,34.8333 58.8333,34.1667 59,33.5C 61.3333,36.1667 63.6667,38.8333 66,41.5C 66.7096,40.0267 67.8762,39.3601 69.5,39.5 Z"/></g>
<g><path style="opacity:1" fill="#407d19" d="M 82.5,34.5 C 87.2631,35.625 87.5965,37.7917 83.5,41C 84.2865,43.0989 84.6199,45.2655 84.5,47.5C 85.5,47.5 86.5,47.5 87.5,47.5C 87.9321,50.8774 87.2655,53.8774 85.5,56.5C 83.2549,54.5829 82.9215,52.2496 84.5,49.5C 83.9017,48.2054 83.4017,46.8721 83,45.5C 81.6667,46.1667 80.3333,46.8333 79,47.5C 78.6667,45.8333 78.3333,44.1667 78,42.5C 76.5946,44.1911 75.4279,46.0245 74.5,48C 73.552,48.4828 72.552,48.6495 71.5,48.5C 71.2317,45.8806 71.565,43.3806 72.5,41C 71.9341,40.0053 71.2674,39.172 70.5,38.5C 70.5,37.8333 70.8333,37.5 71.5,37.5C 75.7822,38.9642 79.4488,37.9642 82.5,34.5 Z"/></g>
<g><path style="opacity:1" fill="#47802c" d="M 101.5,36.5 C 100.508,39.8221 99.5081,43.1555 98.5,46.5C 98.7284,48.2073 99.0617,49.874 99.5,51.5C 97.7839,51.3713 96.1172,51.038 94.5,50.5C 93.7517,48.4159 93.7517,46.4159 94.5,44.5C 93.3112,43.5713 91.9778,43.238 90.5,43.5C 90.2627,42.209 90.596,41.209 91.5,40.5C 93.1992,40.6602 94.8659,40.4935 96.5,40C 97.8845,38.3506 99.5512,37.1839 101.5,36.5 Z"/></g>
<g><path style="opacity:1" fill="#6aa01e" d="M 39.5,28.5 C 40.8734,28.3433 42.2068,28.51 43.5,29C 45.6558,30.9904 47.6558,33.1571 49.5,35.5C 50.4168,34.8728 51.4168,34.5394 52.5,34.5C 51.6314,36.717 51.298,39.0504 51.5,41.5C 49.3043,41.5652 47.3043,42.2319 45.5,43.5C 45.6236,44.1067 45.9569,44.44 46.5,44.5C 46.5,45.5 46.5,46.5 46.5,47.5C 45.7093,49.3093 45.7093,51.3093 46.5,53.5C 43.7173,51.9335 41.0507,50.1001 38.5,48C 37.365,47.2506 36.365,47.4173 35.5,48.5C 38.8276,51.6579 42.3276,54.6579 46,57.5C 46.4643,56.9056 46.631,56.2389 46.5,55.5C 47.5983,56.6009 47.765,57.9343 47,59.5C 44.5272,58.8803 42.0272,58.2136 39.5,57.5C 39.0057,55.9745 38.339,54.6412 37.5,53.5C 35.4271,51.6413 34.0937,49.308 33.5,46.5C 33.9569,45.7025 34.6236,45.3691 35.5,45.5C 36.8221,45.33 37.9887,45.6634 39,46.5C 39.0855,43.4241 38.5855,40.4241 37.5,37.5C 42.1236,39.1458 43.4569,42.3125 41.5,47C 42.6667,47.5 43.5,48.3333 44,49.5C 44.3333,46.8333 44.6667,44.1667 45,41.5C 45.8333,40.6667 46.6667,39.8333 47.5,39C 43.0771,36.755 40.4104,33.255 39.5,28.5 Z"/></g>
<g><path style="opacity:1" fill="#4d890e" d="M 38.5,23.5 C 39.4511,24.9187 39.7845,26.5853 39.5,28.5C 40.4104,33.255 43.0771,36.755 47.5,39C 46.6667,39.8333 45.8333,40.6667 45,41.5C 44.6667,44.1667 44.3333,46.8333 44,49.5C 43.5,48.3333 42.6667,47.5 41.5,47C 43.4569,42.3125 42.1236,39.1458 37.5,37.5C 37.2256,32.737 37.559,28.0704 38.5,23.5 Z"/></g>
<g><path style="opacity:1" fill="#9ec35f" d="M 35.5,45.5 C 34.6236,45.3691 33.9569,45.7025 33.5,46.5C 34.0937,49.308 35.4271,51.6413 37.5,53.5C 37.6716,54.4916 37.3382,55.1583 36.5,55.5C 32.1416,53.6437 28.475,50.8104 25.5,47C 27.7972,46.9822 30.1305,47.1489 32.5,47.5C 32.5,46.5 32.5,45.5 32.5,44.5C 33.791,44.2627 34.791,44.596 35.5,45.5 Z"/></g>
<g><path style="opacity:1" fill="#396f0d" d="M 50.5,57.5 C 49.291,54.1511 47.9577,50.8177 46.5,47.5C 46.5,46.5 46.5,45.5 46.5,44.5C 46.4346,44.0618 46.6012,43.7284 47,43.5C 51.6184,48.964 53.6184,55.2973 53,62.5C 52.2432,60.6854 51.4098,59.0188 50.5,57.5 Z"/></g>
<g><path style="opacity:1" fill="#265f0d" d="M 70.5,38.5 C 71.2674,39.172 71.9341,40.0053 72.5,41C 71.565,43.3806 71.2317,45.8806 71.5,48.5C 72.552,48.6495 73.552,48.4828 74.5,48C 75.4279,46.0245 76.5946,44.1911 78,42.5C 78.3333,44.1667 78.6667,45.8333 79,47.5C 80.3333,46.8333 81.6667,46.1667 83,45.5C 83.4017,46.8721 83.9017,48.2054 84.5,49.5C 82.9215,52.2496 83.2549,54.5829 85.5,56.5C 84.8333,58.8333 84.1667,61.1667 83.5,63.5C 83.5,64.1667 83.5,64.8333 83.5,65.5C 82.1888,63.4402 82.1888,61.2735 83.5,59C 81.5091,57.8415 79.8424,56.3415 78.5,54.5C 77.5832,55.1272 76.5832,55.4606 75.5,55.5C 75.2606,53.5328 75.5939,51.6995 76.5,50C 75.552,49.5172 74.552,49.3505 73.5,49.5C 73.6567,50.8734 73.49,52.2068 73,53.5C 71.9179,51.3819 70.7512,49.3819 69.5,47.5C 66.9817,44.9631 66.9817,42.2964 69.5,39.5C 69.5,38.8333 69.8333,38.5 70.5,38.5 Z"/></g>
<g><path style="opacity:1" fill="#285d13" d="M 90.5,43.5 C 91.9778,43.238 93.3112,43.5713 94.5,44.5C 93.7517,46.4159 93.7517,48.4159 94.5,50.5C 93.1667,51.1667 92.1667,52.1667 91.5,53.5C 90.8692,55.9028 89.8692,58.2361 88.5,60.5C 87.635,61.5827 86.635,61.7494 85.5,61C 88.5636,55.4871 90.2302,49.6537 90.5,43.5 Z"/></g>
<g><path style="opacity:1" fill="#407c0b" d="M 46.5,53.5 C 46.5,54.1667 46.5,54.8333 46.5,55.5C 46.631,56.2389 46.4643,56.9056 46,57.5C 42.3276,54.6579 38.8276,51.6579 35.5,48.5C 36.365,47.4173 37.365,47.2506 38.5,48C 41.0507,50.1001 43.7173,51.9335 46.5,53.5 Z"/></g>
<g><path style="opacity:1" fill="#5b9725" d="M 82.5,34.5 C 82.56,33.9569 82.8933,33.6236 83.5,33.5C 86.777,34.2537 90.1103,34.7537 93.5,35C 93.9574,35.414 94.2907,35.914 94.5,36.5C 93.4756,37.8518 92.4756,39.1851 91.5,40.5C 90.596,41.209 90.2627,42.209 90.5,43.5C 90.2302,49.6537 88.5636,55.4871 85.5,61C 86.635,61.7494 87.635,61.5827 88.5,60.5C 89.8692,58.2361 90.8692,55.9028 91.5,53.5C 91.4921,56.5448 91.1587,59.5448 90.5,62.5C 88.0504,62.298 85.717,62.6314 83.5,63.5C 84.1667,61.1667 84.8333,58.8333 85.5,56.5C 87.2655,53.8774 87.9321,50.8774 87.5,47.5C 86.5,47.5 85.5,47.5 84.5,47.5C 84.6199,45.2655 84.2865,43.0989 83.5,41C 87.5965,37.7917 87.2631,35.625 82.5,34.5 Z"/></g>
<g><path style="opacity:1" fill="#80ac38" d="M 46.5,47.5 C 47.9577,50.8177 49.291,54.1511 50.5,57.5C 50.3754,62.1795 51.7087,66.3462 54.5,70C 55.7932,70.49 57.1266,70.6567 58.5,70.5C 58.6751,74.5406 58.8418,78.5406 59,82.5C 57,78.5 55,74.5 53,70.5C 52.6924,71.3081 52.1924,71.9747 51.5,72.5C 49.1508,71.4435 47.1508,69.9435 45.5,68C 44.2506,67.2599 43.2506,67.4265 42.5,68.5C 37.9953,65.1669 35.9953,60.8335 36.5,55.5C 37.3382,55.1583 37.6716,54.4916 37.5,53.5C 38.339,54.6412 39.0057,55.9745 39.5,57.5C 42.0272,58.2136 44.5272,58.8803 47,59.5C 47.765,57.9343 47.5983,56.6009 46.5,55.5C 46.5,54.8333 46.5,54.1667 46.5,53.5C 45.7093,51.3093 45.7093,49.3093 46.5,47.5 Z"/></g>
<g><path style="opacity:1" fill="#285b0a" d="M 60.5,52.5 C 61.8661,55.0888 62.8661,57.9221 63.5,61C 62.5066,65.4537 61.84,69.9537 61.5,74.5C 61.5,75.1667 61.5,75.8333 61.5,76.5C 59.9397,74.8439 58.9397,72.8439 58.5,70.5C 54.9096,65.9546 53.5763,60.6213 54.5,54.5C 55.5,54.5 56.5,54.5 57.5,54.5C 57.4598,57.4245 58.2932,60.0912 60,62.5C 60.7504,61.8742 61.5838,61.3742 62.5,61C 60.8207,58.4355 60.154,55.6021 60.5,52.5 Z"/></g>
<g><path style="opacity:1" fill="#265516" d="M 93.5,60.5 C 94.1239,60.9169 94.4573,61.5836 94.5,62.5C 93.45,66.3853 91.95,70.052 90,73.5C 89.4644,71.4328 89.9644,69.5994 91.5,68C 91.1667,67.8333 90.8333,67.6667 90.5,67.5C 88.4275,69.568 86.7608,71.9013 85.5,74.5C 84.3634,75.7888 83.0301,76.7888 81.5,77.5C 82.044,75.2845 83.044,73.2845 84.5,71.5C 87.2608,67.6496 90.2608,63.9829 93.5,60.5 Z"/></g>
<g><path style="opacity:1" fill="#79ae33" d="M 94.5,50.5 C 96.1172,51.038 97.7839,51.3713 99.5,51.5C 99.9661,55.162 99.2994,58.4954 97.5,61.5C 97.2761,59.9537 96.9427,58.287 96.5,56.5C 95.016,57.4669 94.016,58.8002 93.5,60.5C 90.2608,63.9829 87.2608,67.6496 84.5,71.5C 83.5386,69.7354 83.2053,67.7354 83.5,65.5C 83.5,64.8333 83.5,64.1667 83.5,63.5C 85.717,62.6314 88.0504,62.298 90.5,62.5C 91.1587,59.5448 91.4921,56.5448 91.5,53.5C 92.1667,52.1667 93.1667,51.1667 94.5,50.5 Z"/></g>
<g><path style="opacity:1" fill="#164309" d="M 69.5,47.5 C 70.7512,49.3819 71.9179,51.3819 73,53.5C 73.49,52.2068 73.6567,50.8734 73.5,49.5C 74.552,49.3505 75.552,49.5172 76.5,50C 75.5939,51.6995 75.2606,53.5328 75.5,55.5C 74.1652,61.4695 72.8319,67.4695 71.5,73.5C 69.236,76.0937 67.9027,79.0937 67.5,82.5C 67.5,81.8333 67.5,81.1667 67.5,80.5C 69.0292,74.6136 70.6959,68.7803 72.5,63C 72.3538,60.2402 71.6872,57.7402 70.5,55.5C 70.5,55.1667 70.5,54.8333 70.5,54.5C 69.7814,52.2362 69.448,49.9029 69.5,47.5 Z"/></g>
<g><path style="opacity:1" fill="#143f06" d="M 69.5,61.5 C 70.6129,62.9464 70.7796,64.6131 70,66.5C 68.5023,69.4954 67.0023,72.4954 65.5,75.5C 64.9569,75.44 64.6236,75.1067 64.5,74.5C 65.8409,70.4889 67.1743,66.4889 68.5,62.5C 69.1667,62.5 69.5,62.1667 69.5,61.5 Z"/></g>
<g><path style="opacity:1" fill="#427824" d="M 97.5,61.5 C 95.9085,69.0257 92.9085,76.0257 88.5,82.5C 86.1332,81.178 84.4665,81.8447 83.5,84.5C 82.7281,85.6935 81.7281,86.6935 80.5,87.5C 80.5,86.8333 80.1667,86.5 79.5,86.5C 82.6689,82.4911 85.6689,78.3245 88.5,74C 87.4232,73.5304 86.4232,73.6971 85.5,74.5C 86.7608,71.9013 88.4275,69.568 90.5,67.5C 90.8333,67.6667 91.1667,67.8333 91.5,68C 89.9644,69.5994 89.4644,71.4328 90,73.5C 91.95,70.052 93.45,66.3853 94.5,62.5C 94.4573,61.5836 94.1239,60.9169 93.5,60.5C 94.016,58.8002 95.016,57.4669 96.5,56.5C 96.9427,58.287 97.2761,59.9537 97.5,61.5 Z"/></g>
<g><path style="opacity:1" fill="#568d1e" d="M 53.5,31.5 C 54.4674,32.8062 55.8007,33.4729 57.5,33.5C 57.4571,36.9099 57.9571,40.2432 59,43.5C 60,44.1667 61,44.8333 62,45.5C 62.3333,47.8333 62.6667,50.1667 63,52.5C 64.0113,53.3366 65.1779,53.67 66.5,53.5C 66.6761,56.7273 67.3428,59.7273 68.5,62.5C 67.1743,66.4889 65.8409,70.4889 64.5,74.5C 64.6236,75.1067 64.9569,75.44 65.5,75.5C 65.2287,77.3117 64.562,78.9783 63.5,80.5C 62.8313,78.3691 62.1646,76.3691 61.5,74.5C 61.84,69.9537 62.5066,65.4537 63.5,61C 62.8661,57.9221 61.8661,55.0888 60.5,52.5C 55.3565,44.0732 53.3565,44.7398 54.5,54.5C 53.5763,60.6213 54.9096,65.9546 58.5,70.5C 57.1266,70.6567 55.7932,70.49 54.5,70C 51.7087,66.3462 50.3754,62.1795 50.5,57.5C 51.4098,59.0188 52.2432,60.6854 53,62.5C 53.6184,55.2973 51.6184,48.964 47,43.5C 46.6012,43.7284 46.4346,44.0618 46.5,44.5C 45.9569,44.44 45.6236,44.1067 45.5,43.5C 47.3043,42.2319 49.3043,41.5652 51.5,41.5C 51.298,39.0504 51.6314,36.717 52.5,34.5C 52.5569,33.391 52.8902,32.391 53.5,31.5 Z"/></g>
<g><path style="opacity:1" fill="#1d4b08" d="M 60.5,52.5 C 60.154,55.6021 60.8207,58.4355 62.5,61C 61.5838,61.3742 60.7504,61.8742 60,62.5C 58.2932,60.0912 57.4598,57.4245 57.5,54.5C 56.5,54.5 55.5,54.5 54.5,54.5C 53.3565,44.7398 55.3565,44.0732 60.5,52.5 Z"/></g>
<g><path style="opacity:1" fill="#3a7016" d="M 70.5,55.5 C 71.6872,57.7402 72.3538,60.2402 72.5,63C 70.6959,68.7803 69.0292,74.6136 67.5,80.5C 66.8333,78.8333 66.1667,77.1667 65.5,75.5C 67.0023,72.4954 68.5023,69.4954 70,66.5C 70.7796,64.6131 70.6129,62.9464 69.5,61.5C 70.3414,59.6208 70.6747,57.6208 70.5,55.5 Z"/></g>
<g><path style="opacity:1" fill="#4a8722" d="M 83.5,65.5 C 83.2053,67.7354 83.5386,69.7354 84.5,71.5C 83.044,73.2845 82.044,75.2845 81.5,77.5C 80.8333,77.5 80.5,77.8333 80.5,78.5C 79.7784,78.0825 79.2784,77.4158 79,76.5C 76.7136,80.6159 73.8803,84.2826 70.5,87.5C 69.3709,85.3718 69.2042,83.0385 70,80.5C 71.2492,82.9915 72.4158,82.8249 73.5,80C 71.75,78.2458 71.0833,76.0792 71.5,73.5C 72.8319,67.4695 74.1652,61.4695 75.5,55.5C 76.5832,55.4606 77.5832,55.1272 78.5,54.5C 79.8424,56.3415 81.5091,57.8415 83.5,59C 82.1888,61.2735 82.1888,63.4402 83.5,65.5 Z"/></g>
<g><path style="opacity:1" fill="#548e20" d="M 42.5,68.5 C 43.2506,67.4265 44.2506,67.2599 45.5,68C 47.1508,69.9435 49.1508,71.4435 51.5,72.5C 52.1924,71.9747 52.6924,71.3081 53,70.5C 55,74.5 57,78.5 59,82.5C 58.8418,78.5406 58.6751,74.5406 58.5,70.5C 58.9397,72.8439 59.9397,74.8439 61.5,76.5C 61.0479,80.5457 60.3813,84.5457 59.5,88.5C 57.6096,88.7035 56.1096,88.0368 55,86.5C 54.6174,87.056 54.1174,87.3893 53.5,87.5C 52.325,87.719 51.325,87.3857 50.5,86.5C 51.7571,83.1769 51.7571,79.8435 50.5,76.5C 47.4789,74.1456 44.8123,71.4789 42.5,68.5 Z"/></g>
<g><path style="opacity:1" fill="#5b8d41" d="M 79.5,86.5 C 71.8176,87.4316 71.6509,86.0983 79,82.5C 79.7914,81.255 80.2914,79.9217 80.5,78.5C 80.5,77.8333 80.8333,77.5 81.5,77.5C 83.0301,76.7888 84.3634,75.7888 85.5,74.5C 86.4232,73.6971 87.4232,73.5304 88.5,74C 85.6689,78.3245 82.6689,82.4911 79.5,86.5 Z"/></g>
<g><path style="opacity:1" fill="#86b234" d="M 61.5,74.5 C 62.1646,76.3691 62.8313,78.3691 63.5,80.5C 64.562,78.9783 65.2287,77.3117 65.5,75.5C 66.1667,77.1667 66.8333,78.8333 67.5,80.5C 67.5,81.1667 67.5,81.8333 67.5,82.5C 67.1706,85.2282 67.8372,87.5615 69.5,89.5C 69.3284,90.4916 69.6618,91.1583 70.5,91.5C 70.5,91.8333 70.5,92.1667 70.5,92.5C 68.8008,92.6602 67.1341,92.4935 65.5,92C 63.7427,90.2505 61.7427,89.0838 59.5,88.5C 60.3813,84.5457 61.0479,80.5457 61.5,76.5C 61.5,75.8333 61.5,75.1667 61.5,74.5 Z"/></g>
<g><path style="opacity:1" fill="#306310" d="M 71.5,73.5 C 71.0833,76.0792 71.75,78.2458 73.5,80C 72.4158,82.8249 71.2492,82.9915 70,80.5C 69.2042,83.0385 69.3709,85.3718 70.5,87.5C 70.1667,88.1667 69.8333,88.8333 69.5,89.5C 67.8372,87.5615 67.1706,85.2282 67.5,82.5C 67.9027,79.0937 69.236,76.0937 71.5,73.5 Z"/></g>
<g><path style="opacity:1" fill="#6b885f" d="M 83.5,84.5 C 83.8483,88.1774 83.1817,90.8441 81.5,92.5C 81.1667,92.5 80.8333,92.5 80.5,92.5C 80.5,92.1667 80.5,91.8333 80.5,91.5C 80.4226,90.2502 79.756,89.4169 78.5,89C 79.4158,88.7216 80.0825,88.2216 80.5,87.5C 81.7281,86.6935 82.7281,85.6935 83.5,84.5 Z"/></g>
<g><path style="opacity:1" fill="#2c4d1f" d="M 80.5,78.5 C 80.2914,79.9217 79.7914,81.255 79,82.5C 71.6509,86.0983 71.8176,87.4316 79.5,86.5C 80.1667,86.5 80.5,86.8333 80.5,87.5C 80.0825,88.2216 79.4158,88.7216 78.5,89C 79.756,89.4169 80.4226,90.2502 80.5,91.5C 79.7321,92.2625 79.2321,93.2625 79,94.5C 77.951,92.8934 76.451,92.2267 74.5,92.5C 74.4595,95.8806 74.7929,99.2139 75.5,102.5C 75.6495,103.552 75.4828,104.552 75,105.5C 74.79,103.942 74.29,102.609 73.5,101.5C 73.81,98.2869 73.4767,95.2869 72.5,92.5C 71.8333,92.1667 71.1667,91.8333 70.5,91.5C 69.6618,91.1583 69.3284,90.4916 69.5,89.5C 69.8333,88.8333 70.1667,88.1667 70.5,87.5C 73.8803,84.2826 76.7136,80.6159 79,76.5C 79.2784,77.4158 79.7784,78.0825 80.5,78.5 Z"/></g>
<g><path style="opacity:1" fill="#5a863a" d="M 59.5,88.5 C 61.7427,89.0838 63.7427,90.2505 65.5,92C 67.1341,92.4935 68.8008,92.6602 70.5,92.5C 68.6264,93.2852 66.6264,93.9518 64.5,94.5C 61.4552,94.5079 58.4552,94.8413 55.5,95.5C 55.5,94.8333 55.5,94.1667 55.5,93.5C 54.3702,91.6854 53.7036,89.6854 53.5,87.5C 54.1174,87.3893 54.6174,87.056 55,86.5C 56.1096,88.0368 57.6096,88.7035 59.5,88.5 Z"/></g>
<g><path style="opacity:1" fill="#4a6f1f" d="M 80.5,91.5 C 80.5,91.8333 80.5,92.1667 80.5,92.5C 80.7054,98.8778 80.3721,105.211 79.5,111.5C 78.0554,107.079 77.222,102.412 77,97.5C 76.8019,99.3817 76.3019,101.048 75.5,102.5C 74.7929,99.2139 74.4595,95.8806 74.5,92.5C 76.451,92.2267 77.951,92.8934 79,94.5C 79.2321,93.2625 79.7321,92.2625 80.5,91.5 Z"/></g>
<g><path style="opacity:1" fill="#93b136" d="M 64.5,94.5 C 65.7626,95.8018 66.4292,97.8018 66.5,100.5C 66.4892,102.045 66.1558,103.378 65.5,104.5C 64.8826,104.611 64.3826,104.944 64,105.5C 63.5026,108.146 63.3359,110.813 63.5,113.5C 61.0923,108.571 59.9256,103.237 60,97.5C 59.7586,100.289 59.092,102.956 58,105.5C 57.1621,102.148 56.3288,98.8151 55.5,95.5C 58.4552,94.8413 61.4552,94.5079 64.5,94.5 Z"/></g>
<g><path style="opacity:1" fill="#9aac55" d="M 80.5,92.5 C 80.8333,92.5 81.1667,92.5 81.5,92.5C 82.5793,98.4492 82.746,104.449 82,110.5C 81.3292,111.252 80.4959,111.586 79.5,111.5C 80.3721,105.211 80.7054,98.8778 80.5,92.5 Z"/></g>
<g><path style="opacity:1" fill="#4d6d1b" d="M 70.5,91.5 C 71.1667,91.8333 71.8333,92.1667 72.5,92.5C 71.922,97.865 71.0887,103.198 70,108.5C 69.1739,106.595 68.0072,106.261 66.5,107.5C 67.3569,108.425 68.3569,109.092 69.5,109.5C 69.5,110.167 69.5,110.833 69.5,111.5C 68.2921,112.234 66.9587,112.567 65.5,112.5C 65.5,109.833 65.5,107.167 65.5,104.5C 66.1558,103.378 66.4892,102.045 66.5,100.5C 66.4292,97.8018 65.7626,95.8018 64.5,94.5C 66.6264,93.9518 68.6264,93.2852 70.5,92.5C 70.5,92.1667 70.5,91.8333 70.5,91.5 Z"/></g>
<g><path style="opacity:1" fill="#b8c362" d="M 65.5,104.5 C 65.5,107.167 65.5,109.833 65.5,112.5C 64.8333,112.833 64.1667,113.167 63.5,113.5C 63.3359,110.813 63.5026,108.146 64,105.5C 64.3826,104.944 64.8826,104.611 65.5,104.5 Z"/></g>
<g><path style="opacity:1" fill="#c0cc68" d="M 55.5,93.5 C 55.5,94.1667 55.5,94.8333 55.5,95.5C 56.3288,98.8151 57.1621,102.148 58,105.5C 59.092,102.956 59.7586,100.289 60,97.5C 59.9256,103.237 61.0923,108.571 63.5,113.5C 62.0011,114.494 60.3344,114.494 58.5,113.5C 58.1667,113.5 57.8333,113.5 57.5,113.5C 57.7678,111.901 57.4345,110.568 56.5,109.5C 56.3689,105.715 55.7022,102.048 54.5,98.5C 54.2155,96.5853 54.5489,94.9187 55.5,93.5 Z"/></g>
<g><path style="opacity:1" fill="#8ea92d" d="M 72.5,92.5 C 73.4767,95.2869 73.81,98.2869 73.5,101.5C 73.5,104.167 73.5,106.833 73.5,109.5C 72.1667,109.5 70.8333,109.5 69.5,109.5C 68.3569,109.092 67.3569,108.425 66.5,107.5C 68.0072,106.261 69.1739,106.595 70,108.5C 71.0887,103.198 71.922,97.865 72.5,92.5 Z"/></g>
<g><path style="opacity:1" fill="#abb259" d="M 79.5,111.5 C 79.5,111.833 79.5,112.167 79.5,112.5C 78.0689,112.119 77.2355,111.119 77,109.5C 76.5495,112.106 75.0495,113.439 72.5,113.5C 72.0269,112.094 71.0269,111.427 69.5,111.5C 69.5,110.833 69.5,110.167 69.5,109.5C 70.8333,109.5 72.1667,109.5 73.5,109.5C 73.5,106.833 73.5,104.167 73.5,101.5C 74.29,102.609 74.79,103.942 75,105.5C 75.4828,104.552 75.6495,103.552 75.5,102.5C 76.3019,101.048 76.8019,99.3817 77,97.5C 77.222,102.412 78.0554,107.079 79.5,111.5 Z"/></g>
<g><path style="opacity:1" fill="#bf9a7a" d="M 79.5,112.5 C 79.7011,119.94 77.3678,120.274 72.5,113.5C 75.0495,113.439 76.5495,112.106 77,109.5C 77.2355,111.119 78.0689,112.119 79.5,112.5 Z"/></g>
<g><path style="opacity:1" fill="#eabe9e" d="M 54.5,98.5 C 55.7022,102.048 56.3689,105.715 56.5,109.5C 54.6614,110.508 53.3281,112.008 52.5,114C 51.5165,114.591 50.8499,114.257 50.5,113C 51.6198,111.263 52.6198,109.429 53.5,107.5C 52.6689,104.336 53.0022,101.336 54.5,98.5 Z"/></g>
<g><path style="opacity:1" fill="#d0ba8f" d="M 65.5,112.5 C 65.5,113.167 65.5,113.833 65.5,114.5C 63.8401,116.248 61.8401,116.748 59.5,116C 58.7476,115.329 58.4142,114.496 58.5,113.5C 60.3344,114.494 62.0011,114.494 63.5,113.5C 64.1667,113.167 64.8333,112.833 65.5,112.5 Z"/></g>
<g><path style="opacity:1" fill="#9b866c" d="M 69.5,111.5 C 69.5,112.833 69.5,114.167 69.5,115.5C 69.5299,116.497 69.0299,117.164 68,117.5C 67.7537,116.279 66.9204,115.279 65.5,114.5C 65.5,113.833 65.5,113.167 65.5,112.5C 66.9587,112.567 68.2921,112.234 69.5,111.5 Z"/></g>
<g><path style="opacity:1" fill="#c8b4aa" d="M 57.5,113.5 C 57.8333,113.5 58.1667,113.5 58.5,113.5C 58.4142,114.496 58.7476,115.329 59.5,116C 61.8401,116.748 63.8401,116.248 65.5,114.5C 66.9204,115.279 67.7537,116.279 68,117.5C 69.0299,117.164 69.5299,116.497 69.5,115.5C 72.7051,116.586 73.0384,118.086 70.5,120C 64.813,121.655 60.1464,120.322 56.5,116C 56.7432,115.098 57.0766,114.265 57.5,113.5 Z"/></g>
</svg>
